<svg 
          xmlns="http://www.w3.org/2000/svg" 
          width="800" 
          height="60" 
          viewBox="0 0 49400 1200">
            <g transform="translate(0, 2048) scale(1,-1)">
              <g transform="translate(0,0)"><path d="M723 1733L1876 1733L1876 -269L723 -269ZM866 -127L1733 -127L1733 1591L866 1591Z" fill="#ffb82b"/></g><g transform="translate(2600,0)"><path d="M723 1733L1876 1733L1876 -269L723 -269ZM866 -127L1733 -127L1733 1591L866 1591Z" fill="#ffb82b"/></g><g transform="translate(5200,0)"><path d="M2349 227Q2349 104 2267.5 21Q2186 -62 2055 -62Q1953 -62 1859.5 10.5Q1766 83 1688 223Q1602 181 1490.5 160Q1379 139 1293 139Q1209 139 1102.5 160.5Q996 182 911 223Q826 86 738 23.5Q650 -39 556 -39Q441 -39 346 17Q251 73 251 197Q251 276 294 372.5Q337 469 432 596Q527 723 607.5 782Q688 841 717.5 900Q747 959 821 1035.5Q895 1112 973 1112Q999 1112 1016.5 1102Q1034 1092 1034 1079Q1034 1064 996.5 1048Q959 1032 959 1004Q959 997 967 997Q983 997 1018.5 1016Q1054 1035 1107 1035Q1180 1035 1221 990Q1262 945 1262 867Q1262 785 1212 735.5Q1162 686 1040.5 663.5Q919 641 856 598Q793 555 717 463Q641 371 641 320Q641 301 648 301Q663 301 719.5 381Q776 461 829 509Q863 396 991 333.5Q1119 271 1298 271Q1485 271 1612 336Q1739 401 1770 515Q1832 459 1884.5 380Q1937 301 1956 301Q1961 301 1962 305.5Q1963 310 1963 316Q1963 375 1892 458Q1821 541 1763 589.5Q1705 638 1569 662.5Q1433 687 1388.5 739.5Q1344 792 1344 867Q1344 948 1387.5 991.5Q1431 1035 1500 1035Q1551 1035 1585 1016Q1619 997 1637 997Q1645 997 1645 1005Q1645 1023 1633.5 1033Q1622 1043 1608 1050L1582 1063Q1570 1069 1570 1079Q1570 1092 1588 1102Q1606 1112 1633 1112Q1689 1112 1753.5 1062.5Q1818 1013 1866 936L1901 878Q1918 850 1945 826L2010 769Q2060 725 2105.5 677Q2151 629 2188 578L2226 525Q2271 462 2310 378Q2349 294 2349 227ZM429 674Q414 720 414 772Q414 868 465.5 928.5Q517 989 603 989L615 989Q679 1238 860.5 1384Q1042 1530 1299 1530Q1458 1530 1601 1468Q1744 1406 1842 1277.5Q1940 1149 1982 989L1995 989Q2080 989 2132 929Q2184 869 2184 775Q2184 752 2181 724.5Q2178 697 2170 681L2137 718Q2120 736 2100 756L2100 772Q2100 823 2074 852Q2048 881 2000 887Q2002 876 2003 865Q2004 854 2006 844Q1946 893 1925 938.5Q1904 984 1856 1034L1824 1069Q1773 1121 1746.5 1136Q1720 1151 1702.5 1153.5Q1685 1156 1652 1175Q1619 1194 1558 1194Q1508 1194 1431 1149Q1354 1104 1304 1104Q1240 1104 1164.5 1149Q1089 1194 1040 1194Q991 1194 962 1182.5Q933 1171 920.5 1161Q908 1151 875.5 1138.5Q843 1126 791.5 1078.5Q740 1031 711 985L682 940Q668 918 655 899.5Q642 881 626 866L609 851Q600 843 592 835Q592 849 594 861.5Q596 874 597 887Q548 880 522 851.5Q496 823 496 772L497 749L463 711Q446 692 429 674ZM1385 478Q1385 433 1364 409.5Q1343 386 1304 386Q1260 386 1236 412Q1212 438 1212 483Q1212 534 1238 580Q1264 626 1299 626Q1333 626 1359 583.5Q1385 541 1385 478ZM1312 767Q1326 731 1356 700Q1348 691 1335 683.5Q1322 676 1297 676Q1280 676 1268 682.5Q1256 689 1247 697Q1261 713 1273 730Q1285 747 1293 767Z" fill="#ffb82b"/></g><g transform="translate(7800,0)"><path d="M1945 122L1943 74Q1990 74 2006.5 40Q2023 6 2026 -118L2026 -156Q2117 -156 2137.5 -192.5Q2158 -229 2161 -393L2161 -430L966 -430Q966 -410 965 -387L965 -309Q965 -295 966 -284L967 -253Q967 -213 973 -188Q979 -163 986 -156Q993 -149 1020 -145L1041 -143Q1050 -143 1055 -141L1057 -120Q1061 -67 1069 -18Q1077 31 1082.5 46.5Q1088 62 1114 74L1104 103Q1046 121 977 173.5Q908 226 841 320.5Q774 415 732 456L578 603L506 674L387 793Q328 853 306.5 907.5Q285 962 285 1015Q285 1087 332 1152.5Q379 1218 456 1242Q444 1281 444 1325Q444 1420 512 1489.5Q580 1559 682 1567Q684 1665 753.5 1736.5Q823 1808 930 1808Q952 1808 973.5 1805Q995 1802 1015 1794Q1044 1863 1108.5 1902.5Q1173 1942 1249 1942Q1327 1942 1387.5 1900Q1448 1858 1481 1778L1535 1649L1642 1381L1717 1189Q1731 1152 1752.5 1114.5Q1774 1077 1814 989Q1828 1011 1844 1035L1875 1079Q1889 1100 1901 1117L1919 1141Q1959 1188 2022 1220Q2085 1252 2148 1252Q2251 1252 2323 1171.5Q2395 1091 2395 996Q2395 917 2356.5 862.5Q2318 808 2307 793L2260 728Q2235 695 2202 648Q2169 601 2152 578Q2121 446 2070 346Q2019 246 1983.5 217.5Q1948 189 1945 122ZM819 1563Q819 1542 829.5 1504Q840 1466 1035 1185L1100 1092Q1131 1048 1154 1018Q1191 1043 1230 1062L1311 1101L1162 1373Q1071 1536 1035.5 1603.5Q1000 1671 929 1671Q885 1671 852 1642.5Q819 1614 819 1563ZM581 1325Q581 1266 622.5 1215.5Q664 1165 690 1135L836 961L954 822Q989 865 1020 899.5Q1051 934 1088 967L1000 1087Q952 1151 910 1210L788 1379Q769 1406 745 1418Q721 1430 695 1430Q651 1430 616 1402Q581 1374 581 1325ZM1709 -173L1922 -170Q1922 -80 1914 -62Q1906 -44 1884 -44L1773 -47L1667 -49Q1608 -49 1548 -50Q1406 -50 1318.5 -44.5Q1231 -39 1214 -37Q1190 -37 1181.5 -50Q1173 -63 1171 -146L1170 -165Q1186 -165 1281.5 -169.5Q1377 -174 1554 -174Q1643 -174 1709 -173ZM2014 587L2025 635L2147 806L2197 875Q2210 894 2234 925.5Q2258 957 2258 996Q2258 1038 2224.5 1076Q2191 1114 2148 1114Q2114 1114 2079 1095Q2044 1076 2025 1053L2006 1027L1973 979L1882 844Q1832 778 1755.5 757.5Q1679 737 1649 706Q1619 675 1599 675Q1588 675 1581 682Q1574 689 1574 697Q1574 713 1590 733Q1606 753 1634 775L1660 794Q1668 800 1693.5 812Q1719 824 1719 845Q1719 866 1710.5 882.5Q1702 899 1675 960Q1648 1021 1607 1092L1598 1118L1471 1442L1412 1587Q1391 1638 1356 1721.5Q1321 1805 1249 1805Q1194 1805 1163.5 1774.5Q1133 1744 1133 1694Q1133 1657 1158.5 1595Q1184 1533 1242 1413L1294 1305Q1316 1257 1340.5 1207Q1365 1157 1385 1120L1409 1124Q1420 1126 1443 1126Q1456 1126 1467 1122.5Q1478 1119 1478 1109Q1478 1088 1432 1068Q1386 1048 1296.5 994.5Q1207 941 1104 853Q1001 765 965.5 718Q930 671 914 671Q893 671 893 692Q893 709 901 728.5Q909 748 914 757Q852 822 783.5 897.5Q715 973 665 1032L625 1078Q606 1100 583 1109Q560 1118 537 1118Q490 1118 456.5 1086.5Q423 1055 423 1015Q423 952 483.5 889.5Q544 827 597 775L666 707Q756 618 800.5 580Q845 542 930 431L969 379Q1019 311 1073.5 276Q1128 241 1169.5 224Q1211 207 1229.5 159.5Q1248 112 1251 80L1252 68Q1258 68 1265 67L1277 67L1569 57Q1627 57 1680 58Q1733 59 1804 63L1805 89Q1805 104 1807 122L1810 158Q1820 247 1875 302Q1930 357 1963 436Q1996 515 2014 587ZM781 248Q789 246 796.5 242.5Q804 239 804 230Q804 217 786 209.5Q768 202 743 202L714 201Q583 209 517 247Q451 285 394 371.5Q337 458 318 571L317 579Q317 596 332 596Q343 596 344 588.5Q345 581 393.5 496.5Q442 412 514.5 350.5Q587 289 713 263ZM614 127Q625 127 635 123.5Q645 120 645 108Q645 96 619.5 89Q594 82 555 82Q381 82 292.5 195.5Q204 309 204 363Q204 375 215 375Q233 375 264 328Q295 281 378 212.5Q461 144 601 127ZM1693 1788Q1693 1795 1700.5 1801Q1708 1807 1714 1807Q1747 1807 1821 1760.5Q1895 1714 1933 1644Q1971 1574 1971 1482Q1971 1431 1953.5 1351.5Q1936 1272 1915 1272Q1909 1272 1905.5 1277.5Q1902 1283 1902 1289Q1902 1306 1904.5 1322Q1907 1338 1907 1355Q1905 1434 1896.5 1499.5Q1888 1565 1853.5 1620.5Q1819 1676 1756 1727.5Q1693 1779 1693 1788ZM2026 1757L2010 1785Q1999 1803 1984.5 1816.5Q1970 1830 1970 1841Q1970 1849 1975 1852.5Q1980 1856 1985 1856Q1991 1856 1999 1852.5Q2007 1849 2014 1844L2027 1835Q2076 1797 2113.5 1735.5Q2151 1674 2151 1600Q2151 1558 2124.5 1468Q2098 1378 2071 1378Q2063 1378 2060.5 1386Q2058 1394 2058 1399Q2058 1404 2069.5 1459.5Q2081 1515 2081 1560Q2081 1668 2026 1757Z" fill="#ffb82b"/></g><g transform="translate(10400,0)"><path d="M723 1733L1876 1733L1876 -269L723 -269ZM866 -127L1733 -127L1733 1591L866 1591Z" fill="#ffb82b"/></g><g transform="translate(13000,0)"><path d="M723 1733L1876 1733L1876 -269L723 -269ZM866 -127L1733 -127L1733 1591L866 1591Z" fill="#ffb82b"/></g><g transform="translate(15600,0)"><path d="M2418 630Q2418 578 2400 529.5Q2382 481 2357 451L2310 392L2254 318Q2222 275 2184.5 228Q2147 181 2111 141L1996 8Q1861 -148 1775.5 -215Q1690 -282 1582.5 -323Q1475 -364 1345 -364Q1165 -364 1004 -301.5Q843 -239 720 -107.5Q597 24 542.5 219.5Q488 415 450 503L437 532L350 713Q325 764 301 816L256 913Q240 946 210.5 1014Q181 1082 181 1156Q181 1274 258.5 1358.5Q336 1443 473 1443Q480 1559 555 1636.5Q630 1714 752 1714Q798 1714 843 1700Q875 1781 941 1830.5Q1007 1880 1096 1880Q1149 1880 1199.5 1862.5Q1250 1845 1289 1813Q1366 1896 1492 1896Q1611 1896 1690.5 1819Q1770 1742 1779 1619.5Q1788 1497 1793 1199L1795 1018Q1795 951 1800.5 845Q1806 739 1822 739Q1829 739 1871 791Q1913 843 1980.5 882.5Q2048 922 2136 922Q2250 922 2334 837Q2418 752 2418 630ZM975 1561Q975 1528 1034.5 1282Q1094 1036 1128 926Q1179 939 1226 944Q1273 949 1330 954L1279 1303L1259 1433Q1249 1494 1243 1540L1233 1606Q1226 1658 1188 1691Q1150 1724 1099 1724Q1041 1724 1008 1678.5Q975 1633 975 1561ZM628 1411Q628 1390 632 1372.5Q636 1355 680 1235L808 878L838 796Q885 828 935.5 854Q986 880 1039 899Q1017 974 992 1062L881 1458Q867 1510 830.5 1533Q794 1556 752 1556Q692 1556 660 1518Q628 1480 628 1411ZM2262 630Q2262 681 2224.5 723.5Q2187 766 2139 766Q2100 766 2070.5 754.5Q2041 743 2023 725L2002 704Q1995 697 1978 676L1937 624Q1887 560 1830 483Q1773 406 1689 406Q1669 406 1649.5 408Q1630 410 1608 410Q1582 410 1563.5 406Q1545 402 1531 396L1508 387Q1497 382 1484 382Q1473 382 1461.5 389Q1450 396 1450 410Q1450 437 1515 464Q1580 491 1625 492.5Q1670 494 1670 558Q1670 625 1661 698L1644 834L1642 997Q1642 1058 1639 1133L1635 1288Q1633 1368 1630 1449L1624 1604Q1621 1669 1584.5 1704.5Q1548 1740 1485 1740Q1427 1740 1394.5 1695Q1362 1650 1362 1588Q1362 1576 1364.5 1536Q1367 1496 1372 1438L1382 1313Q1389 1219 1399 1109Q1409 999 1417 944L1430 942Q1445 940 1479 928.5Q1513 917 1513 900Q1513 886 1490.5 878Q1468 870 1448 870Q1268 851 1099 798Q930 745 781 667L762 655Q751 648 740 648Q729 648 723.5 654.5Q718 661 718 669Q718 681 730 698.5Q742 716 755 729L769 743Q741 808 712.5 877.5Q684 947 654 1026L613 1134L612 1134L588 1199Q572 1242 537 1264.5Q502 1287 462 1287Q406 1287 372 1251Q338 1215 338 1156Q338 1139 342 1115.5Q346 1092 365 1049L397 979Q416 937 440 888L487 788Q511 737 535 689L577 603L607 532Q630 480 653.5 399.5Q677 319 693 267.5Q709 216 728 176.5Q747 137 767.5 102.5Q788 68 810.5 40Q833 12 853 -8.5Q873 -29 909 -56Q1070 -179 1336 -179Q1452 -179 1548.5 -147Q1645 -115 1713 -60.5Q1781 -6 1834 67.5Q1887 141 1908 164L1993 257L2018 285L2083 366Q2115 406 2143 440L2191 499Q2198 507 2230 546Q2262 585 2262 630Z" fill="#ffb82b"/></g><g transform="translate(18200,0)"><path d="M723 1733L1876 1733L1876 -269L723 -269ZM866 -127L1733 -127L1733 1591L866 1591Z" fill="#ffb82b"/></g><g transform="translate(20800,0)"><path d="M2188 1126Q2236 1090 2260.5 1034Q2285 978 2285 908Q2285 832 2254.5 745Q2224 658 2163 582L2134 546Q2097 499 2033.5 444Q1970 389 1892 347L1841 322Q1827 315 1815 308Q1803 301 1797 295L1797 214Q1853 210 1861 147Q1869 84 1871 23L1871 -16Q1971 -16 1987 -63.5Q2003 -111 2006 -255L2006 -290L810 -290Q810 -267 809 -239.5Q808 -212 808 -187Q808 -175 809 -163.5Q810 -152 810 -143L811 -113Q811 -44 823 -25Q835 -6 899 -2L906 61Q913 124 923.5 170.5Q934 217 982 217Q990 217 1000.5 215.5Q1011 214 1022 214L1020 246Q1020 261 1019 275L998 298Q981 319 961.5 329.5Q942 340 904 371L900 373Q815 440 747.5 525.5Q680 611 654.5 657Q629 703 586.5 751.5Q544 800 478.5 903Q413 1006 369 1115Q325 1224 317 1298Q314 1320 314 1341Q314 1457 388 1525Q462 1593 563 1593Q618 1593 670 1568Q670 1712 738 1798Q806 1884 922 1884Q987 1884 1042 1854Q1097 1824 1132 1769Q1183 1864 1249 1915.5Q1315 1967 1396 1967Q1500 1967 1570.5 1892.5Q1641 1818 1641 1721Q1641 1669 1620.5 1619.5Q1600 1570 1571 1509Q1616 1530 1662 1541Q1708 1552 1758 1552Q1935 1552 2067.5 1441Q2200 1330 2200 1198Q2200 1160 2188 1126ZM1170 1393Q1170 1332 1183 1266.5Q1196 1201 1229 1134Q1243 1138 1326.5 1159.5Q1410 1181 1410 1310Q1410 1336 1408 1360.5Q1406 1385 1406 1405Q1406 1417 1408 1433L1411 1460Q1422 1508 1465 1593.5Q1508 1679 1508 1721Q1508 1765 1475.5 1800Q1443 1835 1397 1835Q1313 1835 1241.5 1695.5Q1170 1556 1170 1393ZM803 1569Q803 1412 844 1267.5Q885 1123 956 1005Q1005 1037 1056 1063.5Q1107 1090 1163 1110Q1112 1212 1080.5 1354.5Q1049 1497 1045.5 1590Q1042 1683 1006 1717.5Q970 1752 922 1752Q864 1752 833.5 1707.5Q803 1663 803 1569ZM1103 -29Q1145 -32 1204.5 -33.5Q1264 -35 1339 -35Q1412 -35 1498 -35Q1584 -35 1647 -33Q1749 -31 1767 -31Q1767 50 1760 72.5Q1753 95 1728 95L1640 93Q1599 93 1549 92Q1499 91 1451 91Q1356 91 1249 94.5Q1142 98 1095 101L1059 103L1048 103Q1028 101 1023 78Q1018 55 1015 0L1014 -24ZM2152 908Q2152 972 2122.5 1007Q2093 1042 2036 1042Q1951 1042 1924.5 955Q1898 868 1860 831Q1822 794 1771 794Q1699 794 1658.5 836.5Q1618 879 1618 946Q1618 1025 1656.5 1099Q1695 1173 1774 1173Q1809 1173 1856 1130Q1903 1087 1954 1087Q1998 1087 2032.5 1123Q2067 1159 2067 1199Q2067 1272 1972.5 1345.5Q1878 1419 1756 1419Q1646 1419 1567.5 1347Q1489 1275 1475.5 1191Q1462 1107 1405 1096Q1348 1085 1193 1033Q1038 981 952 929L927 914Q915 907 904 902Q893 897 884 897Q873 897 869 901Q865 905 865 909Q865 920 877.5 936Q890 952 902 962Q834 1034 775 1140Q716 1246 681.5 1353.5Q647 1461 562 1461Q507 1461 477 1427Q447 1393 447 1341Q447 1291 469.5 1224.5Q492 1158 517 1105Q542 1052 575 996.5Q608 941 659 873Q710 805 723 794.5Q736 784 752.5 749.5Q769 715 828.5 637.5Q888 560 939.5 514.5Q991 469 1038 436Q1085 403 1116.5 365.5Q1148 328 1151 288L1156 204L1260 200Q1317 197 1385 197Q1439 197 1482 198L1558 199Q1591 199 1617.5 200.5Q1644 202 1665 204L1665 313L1667 325Q1669 346 1693 376Q1717 406 1763 432L1825 461Q1958 532 2055 658Q2152 784 2152 908ZM1802 1005L1786 1017Q1778 1023 1770 1031Q1767 1026 1764 1013.5Q1761 1001 1759 987L1751 938L1752 932L1771 927Q1774 931 1778 940L1793 979Z" fill="#ffb82b"/></g><g transform="translate(23400,0)"><path d="M723 1733L1876 1733L1876 -269L723 -269ZM866 -127L1733 -127L1733 1591L866 1591Z" fill="#ffb82b"/></g><g transform="translate(26000,0)"><path d="M2101 252Q2101 85 1979 -74.5Q1857 -234 1679.5 -305.5Q1502 -377 1296 -377Q1238 -377 1180 -372.5Q1122 -368 1067.5 -357Q1013 -346 973 -332.5Q933 -319 904.5 -305Q876 -291 844.5 -267.5Q813 -244 779 -204.5Q745 -165 715 -108.5Q685 -52 670 2Q655 56 656.5 55Q658 54 630.5 93.5Q603 133 570.5 188.5Q538 244 515 296Q492 348 481 395.5Q470 443 470 488Q470 588 544.5 660.5Q619 733 725 737Q731 840 794 896Q857 952 925 952L884 1068Q848 1166 821.5 1228Q795 1290 773.5 1387Q752 1484 752 1548Q752 1680 832 1761Q912 1842 1040 1842Q1162 1842 1240 1762.5Q1318 1683 1357 1542L1378 1465Q1387 1434 1395 1395L1424 1233Q1429 1207 1440.5 1151Q1452 1095 1462 1095Q1471 1095 1485.5 1217Q1500 1339 1507 1425Q1514 1511 1546.5 1605Q1579 1699 1652 1762Q1725 1825 1822 1825Q1967 1825 2048.5 1741.5Q2130 1658 2130 1535Q2130 1458 2113.5 1371.5Q2097 1285 2076 1219L2058 1163L1998 987Q1971 906 1955.5 840.5Q1940 775 1929 739.5Q1918 704 1918 672Q1918 623 1962 585Q2006 547 2053.5 454Q2101 361 2101 252ZM1185 719Q1193 719 1253 751.5Q1313 784 1396 784Q1449 784 1507 772Q1565 760 1619 740L1686 715Q1723 701 1760 685Q1765 692 1771 718.5Q1777 745 1784 781L1797 851Q1804 886 1812 909L1853 1027Q1908 1188 1945 1317Q1982 1446 1982 1520Q1982 1591 1941.5 1634Q1901 1677 1838 1677Q1732 1677 1687 1556Q1642 1435 1620 1264L1604 1129L1587 1010Q1577 935 1550 889Q1523 843 1471 843Q1386 843 1357.5 959.5Q1329 1076 1294.5 1240.5Q1260 1405 1211.5 1545Q1163 1685 1066 1685Q985 1685 944 1644Q903 1603 903 1518Q903 1424 981.5 1216.5Q1060 1009 1086 959Q1112 909 1137.5 814Q1163 719 1185 719ZM849 678Q849 632 904 516Q959 400 994 338.5Q1029 277 1092 277Q1134 277 1167.5 305.5Q1201 334 1201 372Q1201 379 1200 386.5Q1199 394 1196 403L1089 715Q1073 762 1041.5 782Q1010 802 973 802Q917 802 883 770.5Q849 739 849 678ZM799 151Q841 151 880 178Q919 205 919 244Q919 259 911 280L868 384L836 456L835 456Q835 459 805.5 526Q776 593 703 593Q651 593 621.5 563Q592 533 592 476Q592 428 616.5 380Q641 332 667 284Q693 236 721 193.5Q749 151 799 151ZM1958 270Q1958 376 1879 465Q1800 554 1660 610Q1520 666 1418 666Q1351 666 1299.5 629Q1248 592 1248 530Q1248 465 1310.5 418.5Q1373 372 1511 328.5Q1649 285 1649 211Q1649 196 1644.5 185Q1640 174 1632 174Q1621 174 1554 203Q1487 232 1432 232Q1361 232 1315.5 170.5Q1270 109 1270 19L1271 1L1271 -27Q1271 -41 1268.5 -52.5Q1266 -64 1259 -64Q1237 -64 1219 -4.5Q1201 55 1201 99Q1201 122 1205 151Q1209 180 1214 199Q1192 177 1158.5 162.5Q1125 148 1090 148Q1065 148 1042.5 155.5Q1020 163 1010 169Q959 96 923 77.5Q887 59 829 56Q851 -46 870.5 -78.5Q890 -111 936 -146.5Q982 -182 1070.5 -208Q1159 -234 1275 -234Q1542 -234 1750 -90.5Q1958 53 1958 270Z" fill="#ffb82b"/></g><g transform="translate(28600,0)"><path d="M723 1733L1876 1733L1876 -269L723 -269ZM866 -127L1733 -127L1733 1591L866 1591Z" fill="#ffb82b"/></g><g transform="translate(31200,0)"><path d="M723 1733L1876 1733L1876 -269L723 -269ZM866 -127L1733 -127L1733 1591L866 1591Z" fill="#ffb82b"/></g><g transform="translate(33800,0)"><path d="M723 1733L1876 1733L1876 -269L723 -269ZM866 -127L1733 -127L1733 1591L866 1591Z" fill="#ffb82b"/></g><g transform="translate(36400,0)"><path d="M723 1733L1876 1733L1876 -269L723 -269ZM866 -127L1733 -127L1733 1591L866 1591Z" fill="#ffb82b"/></g><g transform="translate(39000,0)"><path d="M1049 178Q983 187 952 214.5Q921 242 897.5 273Q874 304 874 353Q874 379 878 394L884 415Q846 430 806.5 478.5Q767 527 767 589Q767 604 770 616Q766 618 748 619.5Q730 621 696 623L550 629Q372 638 302.5 659Q233 680 183.5 737.5Q134 795 134 875Q134 978 187.5 1045.5Q241 1113 352 1127Q463 1141 621 1143L840 1143L886 1142Q860 1177 850.5 1205Q841 1233 841 1263Q841 1361 905.5 1417.5Q970 1474 1077 1474Q1132 1474 1171 1460.5Q1210 1447 1263 1439L1303 1432Q1327 1427 1431.5 1413Q1536 1399 1625 1342Q1714 1285 1771 1209Q1828 1133 1966 1102Q1966 1105 1965 1112L1962 1161Q1962 1206 2000.5 1216Q2039 1226 2098.5 1233.5Q2158 1241 2180 1241Q2180 1247 2181 1257L2184 1277Q2188 1307 2203 1315Q2218 1323 2270 1327Q2322 1331 2351 1331L2429 1331Q2449 1331 2466 1330L2466 143L2434 144Q2278 146 2235.5 164.5Q2193 183 2193 276L2155 277Q2103 277 2051.5 283Q2000 289 1982 306.5Q1964 324 1964 372L1940 367Q1901 356 1839 289.5Q1777 223 1680 152Q1583 81 1474 49Q1365 17 1279 17Q1169 17 1116 63Q1063 109 1049 178ZM1303 147Q1426 160 1524.5 205.5Q1623 251 1693 313Q1763 375 1817.5 446Q1872 517 1978 532Q1980 581 1981 640.5Q1982 700 1982 760Q1982 813 1979.5 858.5Q1977 904 1977 945Q1962 942 1945 942Q1805 942 1674.5 1105.5Q1544 1269 1391 1280Q1238 1291 1198 1304L1161 1315Q1141 1321 1122 1326Q1103 1331 1085 1331Q1043 1331 1018 1302.5Q993 1274 993 1234Q993 1195 1016.5 1172Q1040 1149 1109 1125Q1178 1101 1266.5 1099.5Q1355 1098 1364.5 1089Q1374 1080 1374 1068Q1374 1049 1322.5 1036.5Q1271 1024 1193 1020L1119 1017L492 1004Q350 1000 308.5 976Q267 952 267 890Q267 851 300 821.5Q333 792 407 788L491 785L707 777Q761 775 811 772L861 770Q933 766 971.5 757Q1010 748 1010 730Q1010 707 967 695Q924 683 906 659Q888 635 888 598Q888 542 931 510Q974 478 1044 478Q1081 478 1081 454Q1081 428 1042.5 413.5Q1004 399 1004 364Q1004 323 1044 299Q1084 275 1127 275Q1149 275 1166 280.5Q1183 286 1200 286Q1208 286 1211.5 281.5Q1215 277 1215 271Q1215 250 1188.5 237.5Q1162 225 1162 205Q1162 180 1202.5 163Q1243 146 1286 146ZM2211 815Q2211 966 2207 1041Q2203 1116 2201 1127L2151 1125Q2097 1122 2086 1115Q2075 1108 2075 1083L2077 1042Q2080 1010 2084 929.5Q2088 849 2088 750Q2088 691 2087 633L2085 528L2082 419Q2082 396 2100 387.5Q2118 379 2208 379L2209 480Q2209 569 2211 746Z" fill="#ffb82b"/></g><g transform="translate(41600,0)"><path d="M1321 17Q1235 17 1126 49Q1017 81 920 152Q823 223 761 289.5Q699 356 660 367L636 372Q636 324 618 306.5Q600 289 548.5 283Q497 277 445 277L407 276Q407 185 365.5 165.5Q324 146 166 144L134 143L134 1330Q151 1330 171 1331L249 1331Q278 1331 330 1327Q382 1323 397 1315Q412 1307 417 1277L419 1257Q419 1247 420 1241Q440 1241 500 1233.5Q560 1226 599 1216Q638 1206 638 1161L638 1146L636 1112Q636 1105 634 1102Q698 1116 746 1141.5Q794 1167 828 1209Q862 1251 923.5 1305Q985 1359 1058 1384Q1131 1409 1195 1417L1270 1427L1338 1439Q1390 1447 1429 1460.5Q1468 1474 1523 1474Q1630 1474 1694.5 1417.5Q1759 1361 1759 1263Q1759 1233 1749.5 1205Q1740 1177 1714 1142L1760 1143L1980 1143Q2135 1141 2246.5 1127.5Q2358 1114 2412 1046.5Q2466 979 2466 875Q2466 795 2416.5 737.5Q2367 680 2297.5 659Q2228 638 2050 629L1905 623Q1849 620 1840 618.5Q1831 617 1830 616Q1833 604 1833 589Q1833 527 1793.5 478.5Q1754 430 1716 415L1722 394Q1726 379 1726 353Q1726 304 1702.5 273Q1679 242 1648 214.5Q1617 187 1551 178L1536 135Q1527 106 1507.5 85.5Q1488 65 1469 52.5Q1450 40 1417 28.5Q1384 17 1321 17ZM1297 147L1314 146Q1357 146 1397.5 162.5Q1438 179 1438 205Q1438 225 1411.5 237.5Q1385 250 1385 271Q1385 277 1388.5 281.5Q1392 286 1400 286Q1417 286 1434 280.5Q1451 275 1473 275Q1516 275 1556 299Q1596 323 1596 364Q1596 399 1557.5 413.5Q1519 428 1519 454Q1519 478 1556 478Q1626 478 1669 510Q1712 542 1712 598Q1712 626 1696.5 654.5Q1681 683 1635.5 694.5Q1590 706 1590 730Q1590 748 1628.5 757Q1667 766 1739 770L1789 772Q1838 775 1893 777L2109 785L2193 788Q2267 792 2300 821.5Q2333 851 2333 890Q2333 952 2291.5 976Q2250 1000 2108 1004L1481 1017L1407 1020Q1329 1024 1277.5 1036.5Q1226 1049 1226 1068Q1226 1096 1272.5 1096Q1319 1096 1391.5 1103Q1464 1110 1515.5 1133Q1567 1156 1587 1175.5Q1607 1195 1607 1234Q1607 1274 1582 1302.5Q1557 1331 1515 1331Q1497 1331 1478 1326Q1459 1321 1440 1315L1402 1304Q1364 1292 1215 1280.5Q1066 1269 961 1144.5Q856 1020 791.5 981Q727 942 655 942Q638 942 623 945Q623 904 620.5 858.5Q618 813 618 760Q618 700 619 640.5Q620 581 622 532Q728 517 782.5 446Q837 375 907 313Q977 251 1075.5 205.5Q1174 160 1297 147ZM389 746Q389 569 391 480L392 379Q482 379 500 387.5Q518 396 518 419L515 528L513 633Q513 691 512 750Q512 878 518.5 982.5Q525 1087 525 1083Q525 1108 514 1115Q503 1122 450 1125L399 1127Q397 1116 393 1041Q389 966 389 815Z" fill="#ffb82b"/></g><g transform="translate(44200,0)"><path d="M2028 784Q2028 698 1996 589Q1964 480 1893 383Q1822 286 1755.5 224Q1689 162 1678 123L1673 99Q1721 99 1738.5 81Q1756 63 1762 11.5Q1768 -40 1769 -92L1769 -130Q1860 -130 1879.5 -171.5Q1899 -213 1902 -371L1902 -403L715 -403Q715 -386 714 -366L714 -288Q714 -259 718 -207Q722 -155 730 -140Q738 -125 768 -120L788 -118Q798 -118 804 -117Q804 -97 811.5 -37Q819 23 829 62Q839 101 884 101L899 101L933 99Q940 99 943 97Q912 233 837.5 290Q763 347 707.5 429.5Q652 512 637 602L613 760L607 801Q598 853 584.5 892Q571 931 571 986Q571 1091 626.5 1156.5Q682 1222 782 1222Q812 1222 840 1212.5Q868 1203 903 1177L903 1223Q903 1261 902 1325L903 1443Q903 1603 917.5 1713Q932 1823 1000 1876Q1068 1929 1170 1929Q1250 1929 1307.5 1879.5Q1365 1830 1386 1760.5Q1407 1691 1416 1513L1423 1368Q1425 1312 1426.5 1303Q1428 1294 1429 1293Q1441 1296 1456 1296Q1518 1296 1566.5 1256.5Q1615 1217 1630 1179L1652 1185Q1666 1189 1692 1189Q1741 1189 1772 1165.5Q1803 1142 1830.5 1111Q1858 1080 1867 1014L1909 999Q1939 990 1959.5 970.5Q1980 951 1992.5 932Q2005 913 2016.5 880Q2028 847 2028 784ZM1898 760L1899 777Q1899 820 1882.5 860.5Q1866 901 1840 901Q1820 901 1807.5 874.5Q1795 848 1774 848Q1768 848 1763.5 851.5Q1759 855 1759 863Q1759 880 1764.5 897Q1770 914 1770 936Q1770 979 1746 1019Q1722 1059 1681 1059Q1646 1059 1631.5 1020.5Q1617 982 1591 982Q1567 982 1567 1019Q1567 1089 1535 1132Q1503 1175 1447 1175Q1419 1175 1390.5 1159.5Q1362 1144 1350.5 1098.5Q1339 1053 1315 1053Q1297 1053 1288 1091.5Q1279 1130 1276 1202L1273 1252Q1270 1301 1268 1356L1260 1572L1256 1656Q1253 1730 1223.5 1763Q1194 1796 1155 1796Q1088 1796 1065.5 1747Q1043 1698 1041 1571L1028 944L1025 870Q1021 792 1008.5 740.5Q996 689 977 689Q949 689 949 735.5Q949 782 942 854.5Q935 927 912 978.5Q889 1030 869.5 1050Q850 1070 811 1070Q771 1070 742.5 1045Q714 1020 714 978Q714 960 719 941Q724 922 730 903L742 865Q752 828 764.5 678.5Q777 529 900.5 424Q1024 319 1063.5 254.5Q1103 190 1103 118Q1103 101 1100 86Q1141 86 1186.5 83.5Q1232 81 1285 81Q1345 81 1404.5 82Q1464 83 1513 85Q1525 194 1618 261Q1711 328 1795 456.5Q1879 585 1898 760ZM1299 -148Q1476 -148 1565 -146L1666 -145Q1666 -55 1657.5 -37Q1649 -19 1626 -19L1518 -22L1413 -24Q1354 -24 1295 -25Q1167 -25 1062.5 -18.5Q958 -12 962 -12Q937 -12 930 -23Q923 -34 920 -87L918 -138Q929 -140 1004 -144Q1079 -148 1230 -148Z" fill="#ffb82b"/></g><g transform="translate(46800,0)"><path d="M723 1733L1876 1733L1876 -269L723 -269ZM866 -127L1733 -127L1733 1591L866 1591Z" fill="#ffb82b"/></g>
            </g>
          </svg>