<svg 
          xmlns="http://www.w3.org/2000/svg" 
          width="3054" 
          height="80" 
          viewBox="0 0 137800 1200">
            <g transform="translate(0, 2048) scale(1,-1)">
              <g transform="translate(0,0)"><path d="M723 1733L1876 1733L1876 -269L723 -269ZM866 -127L1733 -127L1733 1591L866 1591Z" fill="#ffb82b"/></g><g transform="translate(2600,0)"><path d="M723 1733L1876 1733L1876 -269L723 -269ZM866 -127L1733 -127L1733 1591L866 1591Z" fill="#ffb82b"/></g><g transform="translate(5200,0)"><path d="M2349 227Q2349 104 2267.5 21Q2186 -62 2055 -62Q1953 -62 1859.5 10.5Q1766 83 1688 223Q1602 181 1490.5 160Q1379 139 1293 139Q1209 139 1102.5 160.5Q996 182 911 223Q826 86 738 23.5Q650 -39 556 -39Q441 -39 346 17Q251 73 251 197Q251 276 294 372.5Q337 469 432 596Q527 723 607.5 782Q688 841 717.5 900Q747 959 821 1035.5Q895 1112 973 1112Q999 1112 1016.5 1102Q1034 1092 1034 1079Q1034 1064 996.5 1048Q959 1032 959 1004Q959 997 967 997Q983 997 1018.5 1016Q1054 1035 1107 1035Q1180 1035 1221 990Q1262 945 1262 867Q1262 785 1212 735.5Q1162 686 1040.5 663.5Q919 641 856 598Q793 555 717 463Q641 371 641 320Q641 301 648 301Q663 301 719.5 381Q776 461 829 509Q863 396 991 333.5Q1119 271 1298 271Q1485 271 1612 336Q1739 401 1770 515Q1832 459 1884.5 380Q1937 301 1956 301Q1961 301 1962 305.5Q1963 310 1963 316Q1963 375 1892 458Q1821 541 1763 589.5Q1705 638 1569 662.5Q1433 687 1388.5 739.5Q1344 792 1344 867Q1344 948 1387.5 991.5Q1431 1035 1500 1035Q1551 1035 1585 1016Q1619 997 1637 997Q1645 997 1645 1005Q1645 1023 1633.5 1033Q1622 1043 1608 1050L1582 1063Q1570 1069 1570 1079Q1570 1092 1588 1102Q1606 1112 1633 1112Q1689 1112 1753.5 1062.5Q1818 1013 1866 936L1901 878Q1918 850 1945 826L2010 769Q2060 725 2105.5 677Q2151 629 2188 578L2226 525Q2271 462 2310 378Q2349 294 2349 227ZM429 674Q414 720 414 772Q414 868 465.5 928.5Q517 989 603 989L615 989Q679 1238 860.5 1384Q1042 1530 1299 1530Q1458 1530 1601 1468Q1744 1406 1842 1277.5Q1940 1149 1982 989L1995 989Q2080 989 2132 929Q2184 869 2184 775Q2184 752 2181 724.5Q2178 697 2170 681L2137 718Q2120 736 2100 756L2100 772Q2100 823 2074 852Q2048 881 2000 887Q2002 876 2003 865Q2004 854 2006 844Q1946 893 1925 938.5Q1904 984 1856 1034L1824 1069Q1773 1121 1746.5 1136Q1720 1151 1702.5 1153.5Q1685 1156 1652 1175Q1619 1194 1558 1194Q1508 1194 1431 1149Q1354 1104 1304 1104Q1240 1104 1164.5 1149Q1089 1194 1040 1194Q991 1194 962 1182.5Q933 1171 920.5 1161Q908 1151 875.5 1138.5Q843 1126 791.5 1078.5Q740 1031 711 985L682 940Q668 918 655 899.5Q642 881 626 866L609 851Q600 843 592 835Q592 849 594 861.5Q596 874 597 887Q548 880 522 851.5Q496 823 496 772L497 749L463 711Q446 692 429 674ZM1385 478Q1385 433 1364 409.5Q1343 386 1304 386Q1260 386 1236 412Q1212 438 1212 483Q1212 534 1238 580Q1264 626 1299 626Q1333 626 1359 583.5Q1385 541 1385 478ZM1312 767Q1326 731 1356 700Q1348 691 1335 683.5Q1322 676 1297 676Q1280 676 1268 682.5Q1256 689 1247 697Q1261 713 1273 730Q1285 747 1293 767Z" fill="#ffb82b"/></g><g transform="translate(7800,0)"><path d="M1945 122L1943 74Q1990 74 2006.5 40Q2023 6 2026 -118L2026 -156Q2117 -156 2137.5 -192.5Q2158 -229 2161 -393L2161 -430L966 -430Q966 -410 965 -387L965 -309Q965 -295 966 -284L967 -253Q967 -213 973 -188Q979 -163 986 -156Q993 -149 1020 -145L1041 -143Q1050 -143 1055 -141L1057 -120Q1061 -67 1069 -18Q1077 31 1082.5 46.5Q1088 62 1114 74L1104 103Q1046 121 977 173.5Q908 226 841 320.5Q774 415 732 456L578 603L506 674L387 793Q328 853 306.5 907.5Q285 962 285 1015Q285 1087 332 1152.5Q379 1218 456 1242Q444 1281 444 1325Q444 1420 512 1489.5Q580 1559 682 1567Q684 1665 753.5 1736.5Q823 1808 930 1808Q952 1808 973.5 1805Q995 1802 1015 1794Q1044 1863 1108.5 1902.5Q1173 1942 1249 1942Q1327 1942 1387.5 1900Q1448 1858 1481 1778L1535 1649L1642 1381L1717 1189Q1731 1152 1752.5 1114.5Q1774 1077 1814 989Q1828 1011 1844 1035L1875 1079Q1889 1100 1901 1117L1919 1141Q1959 1188 2022 1220Q2085 1252 2148 1252Q2251 1252 2323 1171.5Q2395 1091 2395 996Q2395 917 2356.5 862.5Q2318 808 2307 793L2260 728Q2235 695 2202 648Q2169 601 2152 578Q2121 446 2070 346Q2019 246 1983.5 217.5Q1948 189 1945 122ZM819 1563Q819 1542 829.5 1504Q840 1466 1035 1185L1100 1092Q1131 1048 1154 1018Q1191 1043 1230 1062L1311 1101L1162 1373Q1071 1536 1035.5 1603.5Q1000 1671 929 1671Q885 1671 852 1642.5Q819 1614 819 1563ZM581 1325Q581 1266 622.5 1215.5Q664 1165 690 1135L836 961L954 822Q989 865 1020 899.5Q1051 934 1088 967L1000 1087Q952 1151 910 1210L788 1379Q769 1406 745 1418Q721 1430 695 1430Q651 1430 616 1402Q581 1374 581 1325ZM1709 -173L1922 -170Q1922 -80 1914 -62Q1906 -44 1884 -44L1773 -47L1667 -49Q1608 -49 1548 -50Q1406 -50 1318.5 -44.5Q1231 -39 1214 -37Q1190 -37 1181.5 -50Q1173 -63 1171 -146L1170 -165Q1186 -165 1281.5 -169.5Q1377 -174 1554 -174Q1643 -174 1709 -173ZM2014 587L2025 635L2147 806L2197 875Q2210 894 2234 925.5Q2258 957 2258 996Q2258 1038 2224.5 1076Q2191 1114 2148 1114Q2114 1114 2079 1095Q2044 1076 2025 1053L2006 1027L1973 979L1882 844Q1832 778 1755.5 757.5Q1679 737 1649 706Q1619 675 1599 675Q1588 675 1581 682Q1574 689 1574 697Q1574 713 1590 733Q1606 753 1634 775L1660 794Q1668 800 1693.5 812Q1719 824 1719 845Q1719 866 1710.5 882.5Q1702 899 1675 960Q1648 1021 1607 1092L1598 1118L1471 1442L1412 1587Q1391 1638 1356 1721.5Q1321 1805 1249 1805Q1194 1805 1163.5 1774.5Q1133 1744 1133 1694Q1133 1657 1158.5 1595Q1184 1533 1242 1413L1294 1305Q1316 1257 1340.5 1207Q1365 1157 1385 1120L1409 1124Q1420 1126 1443 1126Q1456 1126 1467 1122.5Q1478 1119 1478 1109Q1478 1088 1432 1068Q1386 1048 1296.5 994.5Q1207 941 1104 853Q1001 765 965.5 718Q930 671 914 671Q893 671 893 692Q893 709 901 728.5Q909 748 914 757Q852 822 783.5 897.5Q715 973 665 1032L625 1078Q606 1100 583 1109Q560 1118 537 1118Q490 1118 456.5 1086.5Q423 1055 423 1015Q423 952 483.5 889.5Q544 827 597 775L666 707Q756 618 800.5 580Q845 542 930 431L969 379Q1019 311 1073.5 276Q1128 241 1169.5 224Q1211 207 1229.5 159.5Q1248 112 1251 80L1252 68Q1258 68 1265 67L1277 67L1569 57Q1627 57 1680 58Q1733 59 1804 63L1805 89Q1805 104 1807 122L1810 158Q1820 247 1875 302Q1930 357 1963 436Q1996 515 2014 587ZM781 248Q789 246 796.5 242.5Q804 239 804 230Q804 217 786 209.5Q768 202 743 202L714 201Q583 209 517 247Q451 285 394 371.5Q337 458 318 571L317 579Q317 596 332 596Q343 596 344 588.5Q345 581 393.5 496.5Q442 412 514.5 350.5Q587 289 713 263ZM614 127Q625 127 635 123.5Q645 120 645 108Q645 96 619.5 89Q594 82 555 82Q381 82 292.5 195.5Q204 309 204 363Q204 375 215 375Q233 375 264 328Q295 281 378 212.5Q461 144 601 127ZM1693 1788Q1693 1795 1700.5 1801Q1708 1807 1714 1807Q1747 1807 1821 1760.5Q1895 1714 1933 1644Q1971 1574 1971 1482Q1971 1431 1953.5 1351.5Q1936 1272 1915 1272Q1909 1272 1905.5 1277.5Q1902 1283 1902 1289Q1902 1306 1904.5 1322Q1907 1338 1907 1355Q1905 1434 1896.5 1499.5Q1888 1565 1853.5 1620.5Q1819 1676 1756 1727.5Q1693 1779 1693 1788ZM2026 1757L2010 1785Q1999 1803 1984.5 1816.5Q1970 1830 1970 1841Q1970 1849 1975 1852.5Q1980 1856 1985 1856Q1991 1856 1999 1852.5Q2007 1849 2014 1844L2027 1835Q2076 1797 2113.5 1735.5Q2151 1674 2151 1600Q2151 1558 2124.5 1468Q2098 1378 2071 1378Q2063 1378 2060.5 1386Q2058 1394 2058 1399Q2058 1404 2069.5 1459.5Q2081 1515 2081 1560Q2081 1668 2026 1757Z" fill="#ffb82b"/></g><g transform="translate(10400,0)"><path d="M723 1733L1876 1733L1876 -269L723 -269ZM866 -127L1733 -127L1733 1591L866 1591Z" fill="#ffb82b"/></g><g transform="translate(13000,0)"><path d="M723 1733L1876 1733L1876 -269L723 -269ZM866 -127L1733 -127L1733 1591L866 1591Z" fill="#ffb82b"/></g><g transform="translate(15600,0)"><path d="M2418 630Q2418 578 2400 529.5Q2382 481 2357 451L2310 392L2254 318Q2222 275 2184.5 228Q2147 181 2111 141L1996 8Q1861 -148 1775.5 -215Q1690 -282 1582.5 -323Q1475 -364 1345 -364Q1165 -364 1004 -301.5Q843 -239 720 -107.5Q597 24 542.5 219.5Q488 415 450 503L437 532L350 713Q325 764 301 816L256 913Q240 946 210.5 1014Q181 1082 181 1156Q181 1274 258.5 1358.5Q336 1443 473 1443Q480 1559 555 1636.5Q630 1714 752 1714Q798 1714 843 1700Q875 1781 941 1830.5Q1007 1880 1096 1880Q1149 1880 1199.5 1862.5Q1250 1845 1289 1813Q1366 1896 1492 1896Q1611 1896 1690.5 1819Q1770 1742 1779 1619.5Q1788 1497 1793 1199L1795 1018Q1795 951 1800.5 845Q1806 739 1822 739Q1829 739 1871 791Q1913 843 1980.5 882.5Q2048 922 2136 922Q2250 922 2334 837Q2418 752 2418 630ZM975 1561Q975 1528 1034.5 1282Q1094 1036 1128 926Q1179 939 1226 944Q1273 949 1330 954L1279 1303L1259 1433Q1249 1494 1243 1540L1233 1606Q1226 1658 1188 1691Q1150 1724 1099 1724Q1041 1724 1008 1678.5Q975 1633 975 1561ZM628 1411Q628 1390 632 1372.5Q636 1355 680 1235L808 878L838 796Q885 828 935.5 854Q986 880 1039 899Q1017 974 992 1062L881 1458Q867 1510 830.5 1533Q794 1556 752 1556Q692 1556 660 1518Q628 1480 628 1411ZM2262 630Q2262 681 2224.5 723.5Q2187 766 2139 766Q2100 766 2070.5 754.5Q2041 743 2023 725L2002 704Q1995 697 1978 676L1937 624Q1887 560 1830 483Q1773 406 1689 406Q1669 406 1649.5 408Q1630 410 1608 410Q1582 410 1563.5 406Q1545 402 1531 396L1508 387Q1497 382 1484 382Q1473 382 1461.5 389Q1450 396 1450 410Q1450 437 1515 464Q1580 491 1625 492.5Q1670 494 1670 558Q1670 625 1661 698L1644 834L1642 997Q1642 1058 1639 1133L1635 1288Q1633 1368 1630 1449L1624 1604Q1621 1669 1584.5 1704.5Q1548 1740 1485 1740Q1427 1740 1394.5 1695Q1362 1650 1362 1588Q1362 1576 1364.5 1536Q1367 1496 1372 1438L1382 1313Q1389 1219 1399 1109Q1409 999 1417 944L1430 942Q1445 940 1479 928.5Q1513 917 1513 900Q1513 886 1490.5 878Q1468 870 1448 870Q1268 851 1099 798Q930 745 781 667L762 655Q751 648 740 648Q729 648 723.5 654.5Q718 661 718 669Q718 681 730 698.5Q742 716 755 729L769 743Q741 808 712.5 877.5Q684 947 654 1026L613 1134L612 1134L588 1199Q572 1242 537 1264.5Q502 1287 462 1287Q406 1287 372 1251Q338 1215 338 1156Q338 1139 342 1115.5Q346 1092 365 1049L397 979Q416 937 440 888L487 788Q511 737 535 689L577 603L607 532Q630 480 653.5 399.5Q677 319 693 267.5Q709 216 728 176.5Q747 137 767.5 102.5Q788 68 810.5 40Q833 12 853 -8.5Q873 -29 909 -56Q1070 -179 1336 -179Q1452 -179 1548.5 -147Q1645 -115 1713 -60.5Q1781 -6 1834 67.5Q1887 141 1908 164L1993 257L2018 285L2083 366Q2115 406 2143 440L2191 499Q2198 507 2230 546Q2262 585 2262 630Z" fill="#ffb82b"/></g><g transform="translate(18200,0)"><path d="M723 1733L1876 1733L1876 -269L723 -269ZM866 -127L1733 -127L1733 1591L866 1591Z" fill="#ffb82b"/></g><g transform="translate(20800,0)"><path d="M2188 1126Q2236 1090 2260.5 1034Q2285 978 2285 908Q2285 832 2254.5 745Q2224 658 2163 582L2134 546Q2097 499 2033.5 444Q1970 389 1892 347L1841 322Q1827 315 1815 308Q1803 301 1797 295L1797 214Q1853 210 1861 147Q1869 84 1871 23L1871 -16Q1971 -16 1987 -63.5Q2003 -111 2006 -255L2006 -290L810 -290Q810 -267 809 -239.5Q808 -212 808 -187Q808 -175 809 -163.5Q810 -152 810 -143L811 -113Q811 -44 823 -25Q835 -6 899 -2L906 61Q913 124 923.5 170.5Q934 217 982 217Q990 217 1000.5 215.5Q1011 214 1022 214L1020 246Q1020 261 1019 275L998 298Q981 319 961.5 329.5Q942 340 904 371L900 373Q815 440 747.5 525.5Q680 611 654.5 657Q629 703 586.5 751.5Q544 800 478.5 903Q413 1006 369 1115Q325 1224 317 1298Q314 1320 314 1341Q314 1457 388 1525Q462 1593 563 1593Q618 1593 670 1568Q670 1712 738 1798Q806 1884 922 1884Q987 1884 1042 1854Q1097 1824 1132 1769Q1183 1864 1249 1915.5Q1315 1967 1396 1967Q1500 1967 1570.5 1892.5Q1641 1818 1641 1721Q1641 1669 1620.5 1619.5Q1600 1570 1571 1509Q1616 1530 1662 1541Q1708 1552 1758 1552Q1935 1552 2067.5 1441Q2200 1330 2200 1198Q2200 1160 2188 1126ZM1170 1393Q1170 1332 1183 1266.5Q1196 1201 1229 1134Q1243 1138 1326.5 1159.5Q1410 1181 1410 1310Q1410 1336 1408 1360.5Q1406 1385 1406 1405Q1406 1417 1408 1433L1411 1460Q1422 1508 1465 1593.5Q1508 1679 1508 1721Q1508 1765 1475.5 1800Q1443 1835 1397 1835Q1313 1835 1241.5 1695.5Q1170 1556 1170 1393ZM803 1569Q803 1412 844 1267.5Q885 1123 956 1005Q1005 1037 1056 1063.5Q1107 1090 1163 1110Q1112 1212 1080.5 1354.5Q1049 1497 1045.5 1590Q1042 1683 1006 1717.5Q970 1752 922 1752Q864 1752 833.5 1707.5Q803 1663 803 1569ZM1103 -29Q1145 -32 1204.5 -33.5Q1264 -35 1339 -35Q1412 -35 1498 -35Q1584 -35 1647 -33Q1749 -31 1767 -31Q1767 50 1760 72.5Q1753 95 1728 95L1640 93Q1599 93 1549 92Q1499 91 1451 91Q1356 91 1249 94.5Q1142 98 1095 101L1059 103L1048 103Q1028 101 1023 78Q1018 55 1015 0L1014 -24ZM2152 908Q2152 972 2122.5 1007Q2093 1042 2036 1042Q1951 1042 1924.5 955Q1898 868 1860 831Q1822 794 1771 794Q1699 794 1658.5 836.5Q1618 879 1618 946Q1618 1025 1656.5 1099Q1695 1173 1774 1173Q1809 1173 1856 1130Q1903 1087 1954 1087Q1998 1087 2032.5 1123Q2067 1159 2067 1199Q2067 1272 1972.5 1345.5Q1878 1419 1756 1419Q1646 1419 1567.5 1347Q1489 1275 1475.5 1191Q1462 1107 1405 1096Q1348 1085 1193 1033Q1038 981 952 929L927 914Q915 907 904 902Q893 897 884 897Q873 897 869 901Q865 905 865 909Q865 920 877.5 936Q890 952 902 962Q834 1034 775 1140Q716 1246 681.5 1353.5Q647 1461 562 1461Q507 1461 477 1427Q447 1393 447 1341Q447 1291 469.5 1224.5Q492 1158 517 1105Q542 1052 575 996.5Q608 941 659 873Q710 805 723 794.5Q736 784 752.5 749.5Q769 715 828.5 637.5Q888 560 939.5 514.5Q991 469 1038 436Q1085 403 1116.5 365.5Q1148 328 1151 288L1156 204L1260 200Q1317 197 1385 197Q1439 197 1482 198L1558 199Q1591 199 1617.5 200.5Q1644 202 1665 204L1665 313L1667 325Q1669 346 1693 376Q1717 406 1763 432L1825 461Q1958 532 2055 658Q2152 784 2152 908ZM1802 1005L1786 1017Q1778 1023 1770 1031Q1767 1026 1764 1013.5Q1761 1001 1759 987L1751 938L1752 932L1771 927Q1774 931 1778 940L1793 979Z" fill="#ffb82b"/></g><g transform="translate(23400,0)"><path d="M723 1733L1876 1733L1876 -269L723 -269ZM866 -127L1733 -127L1733 1591L866 1591Z" fill="#ffb82b"/></g><g transform="translate(26000,0)"><path d="M2101 252Q2101 85 1979 -74.5Q1857 -234 1679.5 -305.5Q1502 -377 1296 -377Q1238 -377 1180 -372.5Q1122 -368 1067.5 -357Q1013 -346 973 -332.5Q933 -319 904.5 -305Q876 -291 844.5 -267.5Q813 -244 779 -204.5Q745 -165 715 -108.5Q685 -52 670 2Q655 56 656.5 55Q658 54 630.5 93.5Q603 133 570.5 188.5Q538 244 515 296Q492 348 481 395.5Q470 443 470 488Q470 588 544.5 660.5Q619 733 725 737Q731 840 794 896Q857 952 925 952L884 1068Q848 1166 821.5 1228Q795 1290 773.5 1387Q752 1484 752 1548Q752 1680 832 1761Q912 1842 1040 1842Q1162 1842 1240 1762.5Q1318 1683 1357 1542L1378 1465Q1387 1434 1395 1395L1424 1233Q1429 1207 1440.5 1151Q1452 1095 1462 1095Q1471 1095 1485.5 1217Q1500 1339 1507 1425Q1514 1511 1546.5 1605Q1579 1699 1652 1762Q1725 1825 1822 1825Q1967 1825 2048.5 1741.5Q2130 1658 2130 1535Q2130 1458 2113.5 1371.5Q2097 1285 2076 1219L2058 1163L1998 987Q1971 906 1955.5 840.5Q1940 775 1929 739.5Q1918 704 1918 672Q1918 623 1962 585Q2006 547 2053.5 454Q2101 361 2101 252ZM1185 719Q1193 719 1253 751.5Q1313 784 1396 784Q1449 784 1507 772Q1565 760 1619 740L1686 715Q1723 701 1760 685Q1765 692 1771 718.5Q1777 745 1784 781L1797 851Q1804 886 1812 909L1853 1027Q1908 1188 1945 1317Q1982 1446 1982 1520Q1982 1591 1941.5 1634Q1901 1677 1838 1677Q1732 1677 1687 1556Q1642 1435 1620 1264L1604 1129L1587 1010Q1577 935 1550 889Q1523 843 1471 843Q1386 843 1357.5 959.5Q1329 1076 1294.5 1240.5Q1260 1405 1211.5 1545Q1163 1685 1066 1685Q985 1685 944 1644Q903 1603 903 1518Q903 1424 981.5 1216.5Q1060 1009 1086 959Q1112 909 1137.5 814Q1163 719 1185 719ZM849 678Q849 632 904 516Q959 400 994 338.5Q1029 277 1092 277Q1134 277 1167.5 305.5Q1201 334 1201 372Q1201 379 1200 386.5Q1199 394 1196 403L1089 715Q1073 762 1041.5 782Q1010 802 973 802Q917 802 883 770.5Q849 739 849 678ZM799 151Q841 151 880 178Q919 205 919 244Q919 259 911 280L868 384L836 456L835 456Q835 459 805.5 526Q776 593 703 593Q651 593 621.5 563Q592 533 592 476Q592 428 616.5 380Q641 332 667 284Q693 236 721 193.5Q749 151 799 151ZM1958 270Q1958 376 1879 465Q1800 554 1660 610Q1520 666 1418 666Q1351 666 1299.5 629Q1248 592 1248 530Q1248 465 1310.5 418.5Q1373 372 1511 328.5Q1649 285 1649 211Q1649 196 1644.5 185Q1640 174 1632 174Q1621 174 1554 203Q1487 232 1432 232Q1361 232 1315.5 170.5Q1270 109 1270 19L1271 1L1271 -27Q1271 -41 1268.5 -52.5Q1266 -64 1259 -64Q1237 -64 1219 -4.5Q1201 55 1201 99Q1201 122 1205 151Q1209 180 1214 199Q1192 177 1158.5 162.5Q1125 148 1090 148Q1065 148 1042.5 155.5Q1020 163 1010 169Q959 96 923 77.5Q887 59 829 56Q851 -46 870.5 -78.5Q890 -111 936 -146.5Q982 -182 1070.5 -208Q1159 -234 1275 -234Q1542 -234 1750 -90.5Q1958 53 1958 270Z" fill="#ffb82b"/></g><g transform="translate(28600,0)"><path d="M723 1733L1876 1733L1876 -269L723 -269ZM866 -127L1733 -127L1733 1591L866 1591Z" fill="#ffb82b"/></g><g transform="translate(31200,0)"><path d="M723 1733L1876 1733L1876 -269L723 -269ZM866 -127L1733 -127L1733 1591L866 1591Z" fill="#ffb82b"/></g><g transform="translate(33800,0)"><path d="M723 1733L1876 1733L1876 -269L723 -269ZM866 -127L1733 -127L1733 1591L866 1591Z" fill="#ffb82b"/></g><g transform="translate(36400,0)"><path d="M723 1733L1876 1733L1876 -269L723 -269ZM866 -127L1733 -127L1733 1591L866 1591Z" fill="#ffb82b"/></g><g transform="translate(39000,0)"><path d="M1049 178Q983 187 952 214.5Q921 242 897.5 273Q874 304 874 353Q874 379 878 394L884 415Q846 430 806.5 478.5Q767 527 767 589Q767 604 770 616Q766 618 748 619.5Q730 621 696 623L550 629Q372 638 302.5 659Q233 680 183.5 737.5Q134 795 134 875Q134 978 187.5 1045.5Q241 1113 352 1127Q463 1141 621 1143L840 1143L886 1142Q860 1177 850.5 1205Q841 1233 841 1263Q841 1361 905.5 1417.5Q970 1474 1077 1474Q1132 1474 1171 1460.5Q1210 1447 1263 1439L1303 1432Q1327 1427 1431.5 1413Q1536 1399 1625 1342Q1714 1285 1771 1209Q1828 1133 1966 1102Q1966 1105 1965 1112L1962 1161Q1962 1206 2000.5 1216Q2039 1226 2098.5 1233.5Q2158 1241 2180 1241Q2180 1247 2181 1257L2184 1277Q2188 1307 2203 1315Q2218 1323 2270 1327Q2322 1331 2351 1331L2429 1331Q2449 1331 2466 1330L2466 143L2434 144Q2278 146 2235.5 164.5Q2193 183 2193 276L2155 277Q2103 277 2051.5 283Q2000 289 1982 306.5Q1964 324 1964 372L1940 367Q1901 356 1839 289.5Q1777 223 1680 152Q1583 81 1474 49Q1365 17 1279 17Q1169 17 1116 63Q1063 109 1049 178ZM1303 147Q1426 160 1524.5 205.5Q1623 251 1693 313Q1763 375 1817.5 446Q1872 517 1978 532Q1980 581 1981 640.5Q1982 700 1982 760Q1982 813 1979.5 858.5Q1977 904 1977 945Q1962 942 1945 942Q1805 942 1674.5 1105.5Q1544 1269 1391 1280Q1238 1291 1198 1304L1161 1315Q1141 1321 1122 1326Q1103 1331 1085 1331Q1043 1331 1018 1302.5Q993 1274 993 1234Q993 1195 1016.5 1172Q1040 1149 1109 1125Q1178 1101 1266.5 1099.5Q1355 1098 1364.5 1089Q1374 1080 1374 1068Q1374 1049 1322.5 1036.5Q1271 1024 1193 1020L1119 1017L492 1004Q350 1000 308.5 976Q267 952 267 890Q267 851 300 821.5Q333 792 407 788L491 785L707 777Q761 775 811 772L861 770Q933 766 971.5 757Q1010 748 1010 730Q1010 707 967 695Q924 683 906 659Q888 635 888 598Q888 542 931 510Q974 478 1044 478Q1081 478 1081 454Q1081 428 1042.5 413.5Q1004 399 1004 364Q1004 323 1044 299Q1084 275 1127 275Q1149 275 1166 280.5Q1183 286 1200 286Q1208 286 1211.5 281.5Q1215 277 1215 271Q1215 250 1188.5 237.5Q1162 225 1162 205Q1162 180 1202.5 163Q1243 146 1286 146ZM2211 815Q2211 966 2207 1041Q2203 1116 2201 1127L2151 1125Q2097 1122 2086 1115Q2075 1108 2075 1083L2077 1042Q2080 1010 2084 929.5Q2088 849 2088 750Q2088 691 2087 633L2085 528L2082 419Q2082 396 2100 387.5Q2118 379 2208 379L2209 480Q2209 569 2211 746Z" fill="#ffb82b"/></g><g transform="translate(41600,0)"><path d="M1321 17Q1235 17 1126 49Q1017 81 920 152Q823 223 761 289.5Q699 356 660 367L636 372Q636 324 618 306.5Q600 289 548.5 283Q497 277 445 277L407 276Q407 185 365.5 165.5Q324 146 166 144L134 143L134 1330Q151 1330 171 1331L249 1331Q278 1331 330 1327Q382 1323 397 1315Q412 1307 417 1277L419 1257Q419 1247 420 1241Q440 1241 500 1233.5Q560 1226 599 1216Q638 1206 638 1161L638 1146L636 1112Q636 1105 634 1102Q698 1116 746 1141.5Q794 1167 828 1209Q862 1251 923.5 1305Q985 1359 1058 1384Q1131 1409 1195 1417L1270 1427L1338 1439Q1390 1447 1429 1460.5Q1468 1474 1523 1474Q1630 1474 1694.5 1417.5Q1759 1361 1759 1263Q1759 1233 1749.5 1205Q1740 1177 1714 1142L1760 1143L1980 1143Q2135 1141 2246.5 1127.5Q2358 1114 2412 1046.5Q2466 979 2466 875Q2466 795 2416.5 737.5Q2367 680 2297.5 659Q2228 638 2050 629L1905 623Q1849 620 1840 618.5Q1831 617 1830 616Q1833 604 1833 589Q1833 527 1793.5 478.5Q1754 430 1716 415L1722 394Q1726 379 1726 353Q1726 304 1702.5 273Q1679 242 1648 214.5Q1617 187 1551 178L1536 135Q1527 106 1507.5 85.5Q1488 65 1469 52.5Q1450 40 1417 28.5Q1384 17 1321 17ZM1297 147L1314 146Q1357 146 1397.5 162.5Q1438 179 1438 205Q1438 225 1411.5 237.5Q1385 250 1385 271Q1385 277 1388.5 281.5Q1392 286 1400 286Q1417 286 1434 280.5Q1451 275 1473 275Q1516 275 1556 299Q1596 323 1596 364Q1596 399 1557.5 413.5Q1519 428 1519 454Q1519 478 1556 478Q1626 478 1669 510Q1712 542 1712 598Q1712 626 1696.5 654.5Q1681 683 1635.5 694.5Q1590 706 1590 730Q1590 748 1628.5 757Q1667 766 1739 770L1789 772Q1838 775 1893 777L2109 785L2193 788Q2267 792 2300 821.5Q2333 851 2333 890Q2333 952 2291.5 976Q2250 1000 2108 1004L1481 1017L1407 1020Q1329 1024 1277.5 1036.5Q1226 1049 1226 1068Q1226 1096 1272.5 1096Q1319 1096 1391.5 1103Q1464 1110 1515.5 1133Q1567 1156 1587 1175.5Q1607 1195 1607 1234Q1607 1274 1582 1302.5Q1557 1331 1515 1331Q1497 1331 1478 1326Q1459 1321 1440 1315L1402 1304Q1364 1292 1215 1280.5Q1066 1269 961 1144.5Q856 1020 791.5 981Q727 942 655 942Q638 942 623 945Q623 904 620.5 858.5Q618 813 618 760Q618 700 619 640.5Q620 581 622 532Q728 517 782.5 446Q837 375 907 313Q977 251 1075.5 205.5Q1174 160 1297 147ZM389 746Q389 569 391 480L392 379Q482 379 500 387.5Q518 396 518 419L515 528L513 633Q513 691 512 750Q512 878 518.5 982.5Q525 1087 525 1083Q525 1108 514 1115Q503 1122 450 1125L399 1127Q397 1116 393 1041Q389 966 389 815Z" fill="#ffb82b"/></g><g transform="translate(44200,0)"><path d="M2028 784Q2028 698 1996 589Q1964 480 1893 383Q1822 286 1755.5 224Q1689 162 1678 123L1673 99Q1721 99 1738.5 81Q1756 63 1762 11.5Q1768 -40 1769 -92L1769 -130Q1860 -130 1879.5 -171.5Q1899 -213 1902 -371L1902 -403L715 -403Q715 -386 714 -366L714 -288Q714 -259 718 -207Q722 -155 730 -140Q738 -125 768 -120L788 -118Q798 -118 804 -117Q804 -97 811.5 -37Q819 23 829 62Q839 101 884 101L899 101L933 99Q940 99 943 97Q912 233 837.5 290Q763 347 707.5 429.5Q652 512 637 602L613 760L607 801Q598 853 584.5 892Q571 931 571 986Q571 1091 626.5 1156.5Q682 1222 782 1222Q812 1222 840 1212.5Q868 1203 903 1177L903 1223Q903 1261 902 1325L903 1443Q903 1603 917.5 1713Q932 1823 1000 1876Q1068 1929 1170 1929Q1250 1929 1307.5 1879.5Q1365 1830 1386 1760.5Q1407 1691 1416 1513L1423 1368Q1425 1312 1426.5 1303Q1428 1294 1429 1293Q1441 1296 1456 1296Q1518 1296 1566.5 1256.5Q1615 1217 1630 1179L1652 1185Q1666 1189 1692 1189Q1741 1189 1772 1165.5Q1803 1142 1830.5 1111Q1858 1080 1867 1014L1909 999Q1939 990 1959.5 970.5Q1980 951 1992.5 932Q2005 913 2016.5 880Q2028 847 2028 784ZM1898 760L1899 777Q1899 820 1882.5 860.5Q1866 901 1840 901Q1820 901 1807.5 874.5Q1795 848 1774 848Q1768 848 1763.5 851.5Q1759 855 1759 863Q1759 880 1764.5 897Q1770 914 1770 936Q1770 979 1746 1019Q1722 1059 1681 1059Q1646 1059 1631.5 1020.5Q1617 982 1591 982Q1567 982 1567 1019Q1567 1089 1535 1132Q1503 1175 1447 1175Q1419 1175 1390.5 1159.5Q1362 1144 1350.5 1098.5Q1339 1053 1315 1053Q1297 1053 1288 1091.5Q1279 1130 1276 1202L1273 1252Q1270 1301 1268 1356L1260 1572L1256 1656Q1253 1730 1223.5 1763Q1194 1796 1155 1796Q1088 1796 1065.5 1747Q1043 1698 1041 1571L1028 944L1025 870Q1021 792 1008.5 740.5Q996 689 977 689Q949 689 949 735.5Q949 782 942 854.5Q935 927 912 978.5Q889 1030 869.5 1050Q850 1070 811 1070Q771 1070 742.5 1045Q714 1020 714 978Q714 960 719 941Q724 922 730 903L742 865Q752 828 764.5 678.5Q777 529 900.5 424Q1024 319 1063.5 254.5Q1103 190 1103 118Q1103 101 1100 86Q1141 86 1186.5 83.5Q1232 81 1285 81Q1345 81 1404.5 82Q1464 83 1513 85Q1525 194 1618 261Q1711 328 1795 456.5Q1879 585 1898 760ZM1299 -148Q1476 -148 1565 -146L1666 -145Q1666 -55 1657.5 -37Q1649 -19 1626 -19L1518 -22L1413 -24Q1354 -24 1295 -25Q1167 -25 1062.5 -18.5Q958 -12 962 -12Q937 -12 930 -23Q923 -34 920 -87L918 -138Q929 -140 1004 -144Q1079 -148 1230 -148Z" fill="#ffb82b"/></g><g transform="translate(46800,0)"><path d="M723 1733L1876 1733L1876 -269L723 -269ZM866 -127L1733 -127L1733 1591L866 1591Z" fill="#ffb82b"/></g><g transform="translate(49400,0)"><path d="M571 740Q571 826 603 935Q635 1044 706 1141Q777 1238 843.5 1300Q910 1362 921 1401L926 1425Q878 1425 860.5 1443Q843 1461 837 1512.5Q831 1564 831 1616L830 1654Q737 1654 718.5 1696.5Q700 1739 698 1895L697 1927L1884 1927Q1884 1910 1885 1890L1885 1812Q1885 1783 1881 1731Q1877 1679 1869 1664Q1861 1649 1831 1645L1811 1642Q1801 1642 1795 1641Q1795 1619 1787.5 1559.5Q1780 1500 1770 1461.5Q1760 1423 1715 1423L1666 1426Q1659 1426 1656 1427Q1687 1289 1763 1232Q1839 1175 1896 1086Q1953 997 1967 892.5Q1981 788 1986 764L1993 724Q2001 671 2014.5 632Q2028 593 2028 538Q2028 431 1971.5 366.5Q1915 302 1817 302Q1787 302 1759 311.5Q1731 321 1696 347L1697 301L1697 82Q1695 -76 1681 -187Q1667 -298 1599.5 -351.5Q1532 -405 1429 -405Q1349 -405 1291.5 -355.5Q1234 -306 1213 -236.5Q1192 -167 1183 11L1177 157Q1174 212 1172.5 221Q1171 230 1170 231Q1158 228 1143 228Q1081 228 1032.5 267.5Q984 307 969 345L948 339Q933 335 907 335Q858 335 827 358.5Q796 382 768.5 413Q741 444 732 510Q663 524 617 577Q571 630 571 740ZM701 764L700 747Q700 704 717 663.5Q734 623 759 623Q779 623 791.5 649.5Q804 676 825 676Q831 676 835.5 672.5Q840 669 840 661Q840 644 834.5 627Q829 610 829 588Q829 545 853 505Q877 465 918 465Q953 465 967.5 503.5Q982 542 1008 542Q1032 542 1032 505Q1032 435 1064 392Q1096 349 1152 349Q1189 349 1213 367Q1237 385 1249 428Q1261 471 1284 471Q1302 471 1311 432.5Q1320 394 1324 322L1326 272Q1329 222 1331 168L1339 -48L1342 -132Q1346 -206 1375.5 -239Q1405 -272 1444 -272Q1506 -272 1530 -230.5Q1554 -189 1558 -47L1571 580L1574 654Q1578 732 1590.5 783.5Q1603 835 1622 835Q1634 835 1643 825.5Q1652 816 1653.5 727.5Q1655 639 1679 570Q1703 501 1726 477.5Q1749 454 1788 454Q1828 454 1856.5 479Q1885 504 1885 546Q1885 564 1880 583Q1875 602 1869 622L1858 659Q1845 699 1834 852Q1823 1005 1659.5 1135.5Q1496 1266 1496 1406Q1496 1423 1499 1438Q1458 1438 1412.5 1440.5Q1367 1443 1314 1443Q1254 1443 1194.5 1442Q1135 1441 1086 1439Q1071 1333 1000 1278.5Q929 1224 867 1154Q805 1084 759.5 985.5Q714 887 701 764ZM1300 1672Q1123 1672 1034 1670L933 1669Q933 1579 941.5 1561Q950 1543 973 1543L1082 1546L1187 1548Q1245 1548 1304 1549Q1432 1549 1536.5 1542.5Q1641 1536 1637 1536Q1662 1536 1669 1547Q1676 1558 1679 1612L1681 1662Q1670 1664 1595 1668Q1520 1672 1369 1672Z" fill="#ffb82b"/></g><g transform="translate(52000,0)"><path d="M2037 794Q2037 685 2000.5 580.5Q1964 476 1893.5 395Q1823 314 1745.5 272Q1668 230 1643.5 206.5Q1619 183 1611.5 166.5Q1604 150 1600 88Q1645 88 1661 64Q1677 40 1677 -55L1677 -89L1676 -101L1676 -115L1705 -117Q1728 -119 1749.5 -134Q1771 -149 1775 -181.5Q1779 -214 1779 -239L1778 -267L1778 -310Q1778 -333 1777 -359L778 -357L782 -229Q782 -206 785 -188L787 -162Q791 -101 801.5 -86Q812 -71 852 -68L865 -68Q869 -30 876.5 9.5Q884 49 893 84Q902 119 939 119L947 119L968 116Q948 198 892 231.5Q836 265 785.5 328.5Q735 392 695 517.5Q655 643 634 695L598 779Q582 816 572.5 850.5Q563 885 563 926Q563 1015 627 1081.5Q691 1148 778 1148L797 1147Q805 1147 814 1150Q823 1153 844.5 1205Q866 1257 915.5 1284Q965 1311 1013 1311Q1027 1311 1038.5 1308Q1050 1305 1059 1305Q1078 1305 1096 1333Q1114 1361 1165 1393.5Q1216 1426 1278 1426Q1299 1426 1317.5 1423.5Q1336 1421 1352 1416L1354 1548L1355 1802Q1360 1901 1425 1972.5Q1490 2044 1588 2044Q1704 2044 1777.5 1973Q1851 1902 1851 1796Q1851 1786 1849 1743L1844 1637L1837 1503Q1833 1431 1830 1364L1821 1162Q1821 1140 1852 1109Q1932 1079 1984.5 1008.5Q2037 938 2037 794ZM1475 1222L1487 1183L1498 1140Q1535 1146 1577 1146Q1602 1146 1620 1145Q1638 1144 1653 1143L1707 1136L1708 1177Q1708 1209 1712 1256L1717 1359L1727 1587Q1727 1617 1730.5 1677Q1734 1737 1735 1760L1736 1794Q1736 1857 1695.5 1893.5Q1655 1930 1595 1930Q1545 1930 1514 1892.5Q1483 1855 1480 1800ZM1164 1218Q1164 1205 1166.5 1192.5Q1169 1180 1178 1150L1192 1096Q1218 997 1247.5 910Q1277 823 1345 823Q1367 823 1381.5 831.5Q1396 840 1405 851Q1373 874 1360 910Q1347 946 1347 993Q1347 1035 1362 1062Q1377 1089 1404 1106Q1402 1114 1381.5 1214Q1361 1314 1266 1314Q1217 1314 1190.5 1286.5Q1164 1259 1164 1218ZM888 1084Q888 1066 890.5 1055.5Q893 1045 903 1018L922 971Q932 945 944.5 916.5Q957 888 970 862L993 815Q1016 767 1039.5 753.5Q1063 740 1089 740Q1122 740 1151.5 762.5Q1181 785 1181 819Q1181 832 1177 845L1142 964Q1121 1032 1095 1112Q1069 1192 993 1192Q942 1192 915 1162.5Q888 1133 888 1084ZM835 639Q873 639 905 661Q937 683 937 718Q937 731 931 746L847 956Q833 990 808.5 1004.5Q784 1019 758 1019Q711 1019 686.5 991Q662 963 662 917Q662 871 703.5 791.5Q745 712 768.5 675.5Q792 639 835 639ZM1588 -95Q1588 -38 1583.5 -26Q1579 -14 1560 -14Q1512 -14 1447 -12Q1382 -10 1319 -7L1082 4Q1035 6 1021 7L1005 8Q985 8 979.5 -10.5Q974 -29 971 -42L964 -71Q961 -85 960 -92L1002 -97Q1091 -108 1311.5 -116Q1532 -124 1551 -124L1588 -125ZM1924 790Q1924 932 1861.5 983.5Q1799 1035 1728 1038Q1713 1038 1693 1041L1649 1046Q1625 1049 1599 1051.5Q1573 1054 1548 1054Q1490 1054 1459.5 1030.5Q1429 1007 1429 961Q1429 899 1494 860.5Q1559 822 1619 822Q1627 822 1630 823Q1627 815 1618 773.5Q1609 732 1609 702Q1539 685 1478.5 660Q1418 635 1380 597L1352 569Q1340 556 1329.5 547.5Q1319 539 1308 539Q1286 539 1286 561Q1286 584 1310 637Q1334 690 1346 710L1337 708Q1332 708 1320 707Q1298 707 1281 712Q1264 717 1252 723Q1245 715 1212.5 675Q1180 635 1109 635Q1082 635 1058.5 639.5Q1035 644 1027 649Q1020 607 980.5 573Q941 539 855 539Q844 539 840 540Q848 458 880 411.5Q912 365 970.5 321.5Q1029 278 1051.5 226.5Q1074 175 1080 102Q1141 95 1273 88.5Q1405 82 1497 82L1502 134Q1509 214 1562.5 265Q1616 316 1703.5 369Q1791 422 1857.5 535Q1924 648 1924 790Z" fill="#ffb82b"/></g><g transform="translate(54600,0)"><path d="M2264 1065L2292 1064Q2306 1064 2319 1063L2317 -88L2172 -84Q2143 -84 2122 -81L2093 -78Q2062 -76 2028.5 -69Q1995 -62 1991 -40L1987 -18Q1985 -5 1985 11Q1954 15 1922 20L1864 31Q1793 43 1781 60Q1769 77 1769 97Q1769 110 1770 115Q1771 120 1773 125Q1711 120 1658.5 96Q1606 72 1567 30L1533 -7Q1458 -89 1359.5 -144Q1261 -199 1171 -214.5Q1081 -230 974.5 -250.5Q868 -271 793 -271Q660 -271 575.5 -211Q491 -151 491 -44Q491 -25 494 -9Q497 7 497 18Q497 42 460 59Q423 76 388.5 125.5Q354 175 354 245Q354 286 369.5 334Q385 382 385 391Q385 406 349.5 444Q314 482 297 519Q280 556 280 599Q280 653 300 695Q320 737 335.5 752.5Q351 768 351 780Q351 793 339 806Q327 819 311.5 855Q296 891 296 944Q296 1059 371.5 1128.5Q447 1198 534 1198Q635 1198 730.5 1181.5Q826 1165 825 1165Q830 1165 831 1166Q832 1167 832 1172Q832 1178 808.5 1270.5Q785 1363 785 1470Q785 1549 802 1644Q819 1739 886 1789.5Q953 1840 1052 1840Q1171 1840 1237 1768Q1303 1696 1329 1584Q1355 1472 1360.5 1429Q1366 1386 1439 1270.5Q1512 1155 1579.5 1077Q1647 999 1688 919L1698 901Q1708 880 1724.5 868Q1741 856 1766 856Q1774 856 1785 857L1806 859Q1806 861 1805 862Q1804 863 1804 865Q1806 914 1834.5 930.5Q1863 947 1961 947Q1993 947 2009.5 946Q2026 945 2039 945Q2039 1044 2095 1054.5Q2151 1065 2229 1065ZM1685 241Q1688 241 1689 243Q1718 247 1743 249L1788 251Q1797 339 1805 481.5Q1813 624 1813 681Q1813 695 1812 706.5Q1811 718 1811 729Q1805 729 1792 728Q1651 728 1598 816Q1545 904 1519.5 940Q1494 976 1376.5 1110Q1259 1244 1243.5 1340Q1228 1436 1202 1559.5Q1176 1683 1077 1683Q1000 1683 960.5 1637Q921 1591 921 1485Q921 1320 985.5 1177.5Q1050 1035 1165 884Q1171 805 1192.5 728Q1214 651 1251 606L1279 571Q1291 555 1299.5 542Q1308 529 1308 517Q1308 507 1302.5 497.5Q1297 488 1282 488Q1246 488 1178 533.5Q1110 579 1110 584Q1104 584 1101 574L1094 549Q1089 534 1083 518.5Q1077 503 1065 493Q1067 493 1084.5 466Q1102 439 1117 405.5Q1132 372 1132 348Q1132 309 1113 262.5Q1094 216 1081 203Q1109 191 1135.5 153.5Q1162 116 1162 84Q1162 70 1159 54L1144 -8Q1140 -23 1140 -34Q1140 -51 1155 -59Q1170 -67 1192 -67Q1252 -67 1337 -14.5Q1422 38 1459.5 87.5Q1497 137 1560.5 183.5Q1624 230 1685 241ZM515 487L558 488Q587 488 624 490L702 493Q822 499 879 509Q936 519 958.5 553Q981 587 981 625Q981 664 949.5 694.5Q918 725 884 725Q872 725 845 726L536 736Q471 736 434 697Q397 658 397 596Q397 544 431 515.5Q465 487 515 487ZM417 952Q417 853 549.5 839.5Q682 826 733 822Q784 818 828 818Q892 818 929.5 849Q967 880 967 932Q967 967 941 995Q915 1023 881 1032L843 1041L717 1065Q671 1073 620 1080.5Q569 1088 552 1088Q475 1088 446 1043Q417 998 417 952ZM464 240Q469 193 509 166Q549 139 597 139Q618 139 706.5 152.5Q795 166 902.5 191Q1010 216 1010 307Q1010 350 984.5 380Q959 410 919 410L911 410Q903 410 881 408L634 389L581 384Q524 379 494 342Q464 305 464 251ZM1059 -4Q1059 40 1037 73Q1015 106 974 106Q970 106 967 105Q964 104 959 104L699 62Q647 52 623.5 19.5Q600 -13 600 -53Q600 -105 640.5 -134.5Q681 -164 738 -164Q743 -164 761 -161Q779 -158 804 -152L859 -140Q1010 -105 1034.5 -76Q1059 -47 1059 -4ZM2043 639L2049 813Q2049 838 2050 847Q1980 847 1951 841Q1922 835 1922 813L1921 708Q1919 600 1913 467Q1907 334 1902 269L1896 178Q1896 157 1907 149.5Q1918 142 1959 133L2013 122Q2033 311 2043 639Z" fill="#ffb82b"/></g><g transform="translate(57200,0)"><path d="M370 384L335 384Q319 384 307 385Q293 385 280 386L282 1537L317 1537L370 1535L477 1530L507 1528Q537 1525 569.5 1518.5Q602 1512 608 1489L612 1467Q614 1454 614 1438Q645 1434 677 1429L735 1418Q743 1416 786.5 1405.5Q830 1395 830 1352Q830 1339 829 1334Q828 1329 826 1324Q888 1329 940.5 1353Q993 1377 1032 1419L1066 1456Q1140 1538 1238 1592.5Q1336 1647 1433 1664Q1530 1681 1631 1700.5Q1732 1720 1806 1720Q1939 1720 2023.5 1660Q2108 1600 2108 1493Q2108 1474 2105 1458Q2102 1442 2102 1431Q2102 1407 2139 1390Q2176 1373 2210.5 1323.5Q2245 1274 2245 1204Q2245 1163 2229.5 1115Q2214 1067 2214 1058Q2214 1043 2249.5 1005Q2285 967 2302 930Q2319 893 2319 850Q2319 796 2299 754Q2279 712 2263.5 696.5Q2248 681 2248 669Q2248 656 2260 643Q2272 630 2287.5 594Q2303 558 2303 505Q2303 390 2227.5 320.5Q2152 251 2065 251Q2000 251 1931 259Q1862 267 1801 279L1774 284Q1769 284 1768 283Q1767 282 1767 277Q1767 271 1790.5 178.5Q1814 86 1814 -21Q1814 -99 1797.5 -194.5Q1781 -290 1715 -340.5Q1649 -391 1547 -391Q1456 -391 1400.5 -351.5Q1345 -312 1311.5 -248Q1278 -184 1260 -96Q1242 -8 1236.5 28.5Q1231 65 1165.5 171Q1100 277 1019.5 373Q939 469 916 520.5Q893 572 866 586Q852 593 833 593Q825 593 815 592L793 590Q793 588 794 587Q795 586 795 584Q793 535 764.5 518.5Q736 502 638 502Q606 502 589.5 503Q573 504 560 504Q560 405 504 394.5Q448 384 370 384ZM914 1208Q911 1208 910 1206Q881 1202 856 1201L811 1198Q802 1110 794 967.5Q786 825 786 768Q786 754 787 742.5Q788 731 788 720Q794 720 807 721Q948 721 1001 633.5Q1054 546 1077 512Q1100 478 1220.5 341Q1341 204 1356 103Q1371 2 1398 -116Q1425 -234 1522 -234Q1599 -234 1638.5 -188Q1678 -142 1678 -36Q1678 129 1613.5 271.5Q1549 414 1434 565Q1427 654 1403.5 731Q1380 808 1335.5 859.5Q1291 911 1291 932Q1291 942 1296.5 951.5Q1302 961 1317 961Q1353 961 1421 915.5Q1489 870 1489 865Q1495 865 1498 876L1506 901Q1510 915 1516 930.5Q1522 946 1534 956Q1532 956 1514.5 983Q1497 1010 1482 1043.5Q1467 1077 1467 1101Q1467 1140 1486 1186.5Q1505 1233 1518 1246Q1489 1259 1463 1296Q1437 1333 1437 1365Q1437 1379 1441 1395L1456 1458Q1459 1472 1459 1483Q1459 1500 1444 1508Q1429 1516 1407 1516Q1347 1516 1262 1463.5Q1177 1411 1139.5 1361.5Q1102 1312 1038.5 1265.5Q975 1219 914 1208ZM2084 962L2041 962L1975 960L1897 956Q1890 956 1754 945Q1618 934 1618 824Q1618 785 1649.5 754.5Q1681 724 1715 724Q1727 724 1755 723L2029 714Q2054 714 2063 713Q2128 713 2165 752Q2202 791 2202 853Q2202 905 2168 933.5Q2134 962 2084 962ZM2182 497Q2182 596 2049.5 609.5Q1917 623 1866 627Q1815 631 1771 631Q1700 631 1666 597.5Q1632 564 1632 517Q1632 482 1658 454Q1684 426 1718 417L1757 409Q1782 403 1815 397L1883 385Q1928 376 1979 368.5Q2030 361 2047 361Q2124 361 2153 406Q2182 451 2182 497ZM2135 1209Q2130 1256 2090 1283Q2050 1310 2002 1310Q1981 1310 1892.5 1296.5Q1804 1283 1696.5 1258Q1589 1233 1589 1142Q1589 1099 1614.5 1069Q1640 1039 1680 1039L1688 1039L1718 1042L2018 1065Q2075 1070 2105 1106.5Q2135 1143 2135 1198ZM1540 1453Q1540 1409 1562 1376Q1584 1343 1625 1343Q1629 1343 1632 1344Q1635 1345 1640 1345L1900 1387Q1952 1397 1975.5 1429.5Q1999 1462 1999 1502Q1999 1555 1958 1584Q1917 1613 1861 1613Q1856 1613 1838 1610Q1820 1607 1795 1602L1740 1589Q1644 1567 1592 1543.5Q1540 1520 1540 1453ZM556 810L550 636Q550 611 549 602Q619 602 648 608Q677 614 677 636L679 742Q679 849 685.5 982Q692 1115 697 1180L703 1271Q703 1292 692 1299.5Q681 1307 641 1316L586 1327Q566 1138 556 810Z" fill="#ffb82b"/></g><g transform="translate(59800,0)"><path d="M2285 723Q2285 487 2164.5 286.5Q2044 86 1822.5 -19.5Q1601 -125 1300 -125Q1133 -125 995.5 -84Q858 -43 752.5 28.5Q647 100 566.5 203Q486 306 445.5 427Q405 548 360 682.5Q315 817 315 936Q315 1073 384.5 1156Q454 1239 581 1239Q616 1239 625 1244Q634 1249 657.5 1302.5Q681 1356 741 1398Q801 1440 892 1440Q931 1440 961.5 1432Q992 1424 1012 1424Q1043 1424 1068 1466Q1093 1508 1151 1544Q1209 1580 1281 1580Q1348 1580 1401.5 1551Q1455 1522 1459 1522Q1471 1522 1494 1542.5Q1517 1563 1567 1588Q1617 1613 1692 1613Q1784 1613 1853 1562Q1922 1511 1949 1450.5Q1976 1390 1986.5 1275Q1997 1160 2046.5 1147.5Q2096 1135 2163 1073.5Q2230 1012 2257.5 927Q2285 842 2285 723ZM1549 1317Q1549 1298 1551.5 1258Q1554 1218 1559 1167Q1579 1172 1603 1173Q1627 1174 1652 1174Q1710 1174 1757.5 1169.5Q1805 1165 1853 1158L1848 1318Q1846 1390 1801.5 1431.5Q1757 1473 1679 1473Q1620 1473 1584.5 1426Q1549 1379 1549 1317ZM1149 1310Q1149 1302 1150 1296L1152 1282Q1154 1265 1159.5 1231.5Q1165 1198 1173 1157L1189 1069Q1189 1059 1219.5 915Q1250 771 1353 771Q1375 771 1389.5 775.5Q1404 780 1415 790L1429 802Q1396 831 1381 871.5Q1366 912 1366 962Q1366 1035 1389 1078Q1412 1121 1459 1144L1440 1303Q1431 1368 1389.5 1405.5Q1348 1443 1284 1443Q1218 1443 1183.5 1408Q1149 1373 1149 1310ZM760 1162Q760 1154 761 1147L763 1132Q771 1092 801.5 996.5Q832 901 871.5 796Q911 691 1001 691Q1049 691 1087 721Q1125 751 1125 797Q1125 804 1124 810L1122 822L1042 1196Q1029 1257 988.5 1285Q948 1313 900 1313Q832 1313 796 1270.5Q760 1228 760 1162ZM649 585Q701 585 741.5 614.5Q782 644 782 689Q782 695 781 703Q780 711 778 719L689 1011Q672 1064 638.5 1086Q605 1108 564 1108Q501 1108 467.5 1069.5Q434 1031 434 960Q434 914 476.5 808Q519 702 549 643.5Q579 585 649 585ZM2132 719Q2132 919 2041 987.5Q1950 1056 1864 1056Q1832 1058 1761.5 1067.5Q1691 1077 1640 1077Q1547 1077 1503.5 1045Q1460 1013 1460 951Q1460 865 1549 814Q1638 763 1718 763Q1729 763 1734 765Q1728 754 1717 696Q1706 638 1706 602L1625 578Q1553 557 1482.5 520Q1412 483 1369.5 431.5Q1327 380 1300 380Q1267 380 1267 414Q1267 455 1305.5 531Q1344 607 1348 609Q1352 611 1352 617Q1352 624 1340 627L1310 632Q1292 635 1273 639.5Q1254 644 1241 656Q1175 593 1135.5 574Q1096 555 1060 555Q1020 555 973 568.5Q926 582 910 595Q898 552 854 517Q810 482 771 482Q740 482 711 486.5Q682 491 660 491Q634 491 624.5 478.5Q615 466 615 443Q615 360 713.5 246Q812 132 963 69.5Q1114 7 1303 7Q1688 7 1910 209Q2132 411 2132 719Z" fill="#ffb82b"/></g><g transform="translate(62400,0)"><path d="M2345 395Q2345 234 2230 118Q2115 2 1908 -64.5Q1701 -131 1573 -131Q1446 -131 1362.5 -92Q1279 -53 1241 12.5Q1203 78 1203 131L1181 127Q1155 121 1116.5 115.5Q1078 110 1054 110Q845 110 659.5 198.5Q474 287 364 502.5Q254 718 254 916Q254 1145 350.5 1298.5Q447 1452 619 1452Q633 1452 645.5 1450.5Q658 1449 670 1447L681 1446L689 1456Q725 1502 775.5 1524.5Q826 1547 908 1547Q947 1547 996.5 1540Q1046 1533 1047 1530.5Q1048 1528 1051 1528Q1055 1528 1079 1550Q1103 1572 1159 1588.5Q1215 1605 1280 1605Q1334 1605 1386 1595.5Q1438 1586 1488 1558Q1526 1578 1586.5 1593Q1647 1608 1703 1608Q1961 1608 2086 1375.5Q2211 1143 2211 876Q2211 836 2208 794.5Q2205 753 2200 708Q2257 657 2301 571Q2345 485 2345 395ZM1313 350Q1392 350 1429 402.5Q1466 455 1466 606Q1466 696 1462 767.5Q1458 839 1458 899Q1458 1006 1476 1056Q1494 1106 1528 1106Q1551 1106 1562.5 1088Q1574 1070 1574 1045Q1574 1031 1572.5 991.5Q1571 952 1571 897Q1571 691 1601.5 550.5Q1632 410 1718 410Q1821 410 1897 568Q1973 726 1973 987Q1973 1043 1967.5 1095.5Q1962 1148 1950 1202L1948 1209Q1942 1233 1934 1254L1915 1297Q1879 1383 1806 1428.5Q1733 1474 1643 1474Q1579 1474 1526.5 1460.5Q1474 1447 1440 1416L1364 1439Q1349 1443 1345 1443Q1325 1448 1304.5 1450.5Q1284 1453 1262 1453Q1205 1453 1162.5 1428.5Q1120 1404 1080 1368Q1020 1391 955 1391Q904 1391 856 1376.5Q808 1362 766 1330L752 1318Q743 1311 741 1304Q724 1313 702 1316Q680 1319 656 1319Q529 1319 460.5 1227.5Q392 1136 392 898Q392 718 469 554.5Q546 391 632 391Q657 391 673 403Q689 415 689 434Q689 449 683 466Q677 483 675 494L667 532Q655 582 646 652Q637 722 637 787Q637 885 657 958Q677 1031 715 1031Q729 1031 733 1019.5Q737 1008 737 986Q737 937 733.5 896.5Q730 856 730 816Q730 685 775.5 543.5Q821 402 868.5 369Q916 336 967 336Q1006 336 1041.5 357.5Q1077 379 1077 413Q1077 436 1062 470Q1047 504 1033 599Q1019 694 1019 857Q1019 1020 1033.5 1046.5Q1048 1073 1077 1073Q1091 1073 1103 1060.5Q1115 1048 1115 1019Q1115 910 1119.5 821.5Q1124 733 1141 625Q1158 517 1179.5 463Q1201 409 1223.5 379.5Q1246 350 1313 350ZM2177 346Q2177 412 2137.5 469.5Q2098 527 2063 546Q2022 432 1962 364Q1902 296 1827.5 263Q1753 230 1637 230Q1578 230 1546 235L1497 241Q1457 226 1427 196Q1397 166 1397 117Q1397 75 1440.5 38.5Q1484 2 1556 2L1576 3Q1640 6 1807 42.5Q1974 79 2075.5 164.5Q2177 250 2177 346Z" fill="#ffb82b"/></g><g transform="translate(65000,0)"><path d="M723 1733L1876 1733L1876 -269L723 -269ZM866 -127L1733 -127L1733 1591L866 1591Z" fill="#ffb82b"/></g><g transform="translate(67600,0)"><path d="M723 1733L1876 1733L1876 -269L723 -269ZM866 -127L1733 -127L1733 1591L866 1591Z" fill="#ffb82b"/></g><g transform="translate(70200,0)"><path d="M2389 319Q2389 227 2356.5 118.5Q2324 10 2259.5 -69Q2195 -148 2118 -200.5Q2041 -253 1966.5 -281.5Q1892 -310 1777 -310Q1563 -310 1385.5 -200.5Q1208 -91 1054.5 92.5Q901 276 886 434Q867 438 827.5 443.5Q788 449 738 455L633 468L529 482Q471 489 413.5 498.5Q356 508 306 537.5Q256 567 224.5 616Q193 665 193 724Q193 760 205 792.5Q217 825 234 854Q192 886 164.5 933Q137 980 137 1034Q137 1084 161.5 1131Q186 1178 223 1208Q203 1237 190.5 1269.5Q178 1302 178 1338Q178 1406 223.5 1467Q269 1528 338 1549Q335 1563 333 1576Q331 1589 331 1602Q331 1694 401 1758.5Q471 1823 553 1823Q617 1823 676.5 1789.5Q736 1756 882 1668L1064 1557Q1157 1500 1206.5 1472Q1256 1444 1267 1444Q1273 1444 1273 1449Q1273 1455 1258.5 1491Q1244 1527 1244 1582Q1244 1694 1306.5 1761Q1369 1828 1471 1828Q1544 1828 1602.5 1788.5Q1661 1749 1686 1679.5Q1711 1610 1740 1534Q1769 1458 1789 1383L1828 1251L1852 1163Q1872 1090 1873.5 1060.5Q1875 1031 1880 1011L1895 1011Q2012 1011 2139 904.5Q2266 798 2327.5 628.5Q2389 459 2389 319ZM2271 319Q2271 453 2224.5 582Q2178 711 2076.5 802Q1975 893 1896 893Q1863 893 1847.5 880Q1832 867 1832 846Q1832 816 1867 784.5Q1902 753 1984 642.5Q2066 532 2066 506Q2066 493 2056.5 482.5Q2047 472 2033 472Q2013 472 2000 496Q1987 520 1944 581.5Q1901 643 1837 715L1829 726L1759 801Q1698 862 1636 916Q1574 970 1540 995L1516 1012Q1469 1044 1436 1055.5Q1403 1067 1377 1067Q1346 1067 1323.5 1052Q1301 1037 1301 1019Q1301 1009 1308 997L1350 956Q1401 906 1480.5 819.5Q1560 733 1622 657L1638 640Q1652 623 1661.5 608.5Q1671 594 1671 583Q1671 569 1661 560.5Q1651 552 1638 552Q1616 552 1601.5 576Q1587 600 1428 774Q1269 948 1249 961Q1229 974 1204 974Q1179 974 1156.5 951.5Q1134 929 1134 904Q1134 886 1142 869Q1150 852 1160 837L1259 717Q1306 659 1345.5 612.5Q1385 566 1425 522L1470 474Q1481 462 1488.5 451Q1496 440 1496 431Q1496 419 1487.5 408.5Q1479 398 1462 398Q1452 398 1444.5 402.5Q1437 407 1380.5 470Q1324 533 1238.5 635.5Q1153 738 1121 780L1115 789Q1111 792 1106.5 794.5Q1102 797 1096 797Q1079 797 1062 775.5Q1045 754 1045 728Q1045 671 1133 530.5Q1221 390 1284 334Q1347 278 1347 260Q1347 246 1336.5 236Q1326 226 1312 226Q1291 226 1225 296.5Q1159 367 1116.5 432Q1074 497 1063.5 518Q1053 539 1038 539Q1022 539 1011.5 521.5Q1001 504 1001 464Q1001 403 1036.5 327.5Q1072 252 1194 114Q1316 -24 1459 -106L1497 -127Q1540 -152 1615.5 -172Q1691 -192 1775 -192L1811 -192Q1926 -192 2050 -105.5Q2174 -19 2222.5 93Q2271 205 2271 319ZM509 608L583 598L738 578Q773 573 797 571L846 566Q868 563 900 556Q908 579 922.5 597.5Q937 616 949 626Q939 651 933 677Q927 703 927 730Q927 775 948.5 820Q970 865 1016 891L1016 901Q1016 974 1070 1032.5Q1124 1091 1203 1091Q1224 1127 1258 1150Q1292 1173 1337 1180Q1340 1194 1348 1207Q1356 1220 1356 1234Q1356 1258 1271 1301Q1186 1344 1138 1365Q1099 1391 1055 1419L852 1544L734 1615L618 1682Q600 1693 584 1697Q568 1701 553 1701Q516 1701 484.5 1669.5Q453 1638 453 1601Q453 1572 475 1542.5Q497 1513 526.5 1495.5Q556 1478 618 1445L705 1399L800 1350Q839 1329 883 1307Q927 1285 964 1267Q968 1270 988 1291Q1008 1312 1027 1312Q1032 1312 1036.5 1308.5Q1041 1305 1041 1297Q1041 1286 1036 1274L1027 1256Q954 1121 919.5 974.5Q885 828 882.5 757Q880 686 857 686Q845 686 835.5 707.5Q826 729 823 753Q762 764 701 775.5Q640 787 588 798L445 827L433 829Q427 829 420 830Q377 830 346.5 798Q316 766 316 724Q316 685 353 656Q390 627 436 619ZM1366 1583Q1366 1562 1374.5 1534Q1383 1506 1408 1441L1447 1335Q1452 1321 1453.5 1307.5Q1455 1294 1455 1283Q1455 1248 1441.5 1227Q1428 1206 1410 1182Q1481 1176 1562.5 1122.5Q1644 1069 1756 967L1756 982Q1756 1044 1739 1106.5Q1722 1169 1697 1228L1655 1383Q1626 1467 1597.5 1559.5Q1569 1652 1546 1678.5Q1523 1705 1471 1705Q1420 1705 1393 1670Q1366 1635 1366 1583ZM301 1338Q301 1310 321.5 1281Q342 1252 372.5 1235.5Q403 1219 578 1159L680 1124Q730 1107 776 1093L855 1068Q867 1105 884.5 1143Q902 1181 922 1213Q896 1224 855 1243L499 1404Q485 1410 456 1423.5Q427 1437 404 1437Q361 1437 331 1405Q301 1373 301 1338ZM261 1044Q261 1040 260 1035Q260 1002 291 969.5Q322 937 355.5 928Q389 919 460 903L816 822Q816 870 820.5 912.5Q825 955 834 997Q775 1014 707 1035L577 1074Q514 1093 466 1109L399 1130Q389 1133 380 1134Q371 1135 363 1135Q325 1135 299.5 1110.5Q274 1086 263 1053ZM915 90Q927 90 930 77Q933 64 933 53L933 34Q933 -13 928.5 -62Q924 -111 919 -155L912 -222Q908 -258 904.5 -277.5Q901 -297 901 -314Q901 -342 893 -355.5Q885 -369 864 -369Q849 -369 781.5 -351.5Q714 -334 679.5 -311.5Q645 -289 645 -266Q645 -246 661 -216.5Q677 -187 709 -147L730 -121Q794 -28 844.5 31Q895 90 915 90ZM730 327Q730 314 710.5 293.5Q691 273 619 214Q547 155 523 131Q499 107 478 94.5Q457 82 425 53Q393 24 368 24Q318 24 283 109Q248 194 248 204Q248 225 264.5 240.5Q281 256 424 287Q567 318 615.5 331.5Q664 345 710 345Q717 345 723.5 340.5Q730 336 730 327ZM1901 1497Q1886 1497 1882 1513.5Q1878 1530 1878 1542Q1878 1604 1882 1625Q1886 1646 1892 1808.5Q1898 1971 1943 1971Q1963 1971 1983 1966Q2003 1961 2023 1955L2062 1941Q2070 1938 2111 1926Q2152 1914 2152 1887Q2152 1864 2119 1820.5Q2086 1777 2010 1653Q1934 1529 1925.5 1513Q1917 1497 1901 1497ZM2460 1239Q2463 1226 2463 1213Q2463 1195 2449 1186Q2435 1177 2313 1163.5Q2191 1150 2100 1150Q2047 1150 2047 1172Q2047 1192 2104.5 1223.5Q2162 1255 2217 1288Q2272 1321 2319 1352Q2366 1383 2397 1383Q2406 1383 2421 1363Q2436 1343 2444 1320L2450 1292Q2453 1277 2455 1261Z" fill="#ffb82b"/></g><g transform="translate(72800,0)"><path d="M2432 1296Q2446 1199 2452 1102.5Q2458 1006 2458 908Q2458 735 2430 520Q2402 305 2337.5 118Q2273 -69 2223 -124Q2173 -179 2058.5 -236.5Q1944 -294 1742 -336Q1540 -378 1300 -378Q1056 -378 853 -335Q650 -292 535.5 -233Q421 -174 372.5 -118Q324 -62 258.5 131.5Q193 325 167 542Q141 759 141 922Q141 1124 166.5 1276Q192 1428 192 1475Q192 1529 181 1583Q170 1637 170 1692Q170 1830 253.5 1934Q337 2038 460 2038Q530 2038 604 1987Q678 1936 678 1875Q678 1829 644.5 1776.5Q611 1724 611 1696Q611 1682 621.5 1667.5Q632 1653 655 1653Q670 1653 683.5 1660.5Q697 1668 711 1668Q741 1668 762.5 1647.5Q784 1627 784 1599Q784 1550 704.5 1503Q625 1456 558 1414.5Q491 1373 484 1312Q477 1251 470 1148.5Q463 1046 463 966L463 927Q463 887 466.5 855Q470 823 477 823Q488 823 499 847.5Q510 872 560 947Q610 1022 675 1085Q740 1148 823.5 1197Q907 1246 1014 1278Q1140 1315 1300 1315Q1398 1315 1487 1300Q1576 1285 1659.5 1253Q1743 1221 1815 1173Q1887 1125 1946.5 1064Q2006 1003 2059 916Q2112 829 2114.5 826Q2117 823 2124 823Q2131 823 2134 858.5Q2137 894 2137 927L2137 966Q2137 1029 2131 1134.5Q2125 1240 2119 1305.5Q2113 1371 2051 1408L1996 1442Q1968 1459 1941 1477L1903 1499Q1863 1521 1840 1545.5Q1817 1570 1817 1599Q1817 1627 1838 1647.5Q1859 1668 1888 1668Q1903 1668 1916.5 1660.5Q1930 1653 1944 1653Q1968 1653 1978 1668Q1988 1683 1988 1697Q1988 1725 1955 1779Q1922 1833 1922 1875Q1922 1930 1993.5 1984Q2065 2038 2140 2038Q2267 2038 2348.5 1933Q2430 1828 2430 1692Q2430 1636 2419.5 1580Q2409 1524 2409 1470Q2409 1425 2417 1384ZM884 697.5Q884 697.5 885 700.25Q886 703 895 718.5Q904 734 926.5 751Q949 768 981 768Q1006 768 1026.5 756.5Q1047 745 1062 729L1069 720Q1074 712 1082.5 708Q1091 704 1099 704Q1114 704 1123.5 715.5Q1133 727 1133 740Q1133 751 1128 759L1117 773Q1096 798 1060.5 819Q1025 840 981 840Q941 840 908.5 825Q876 810 848.5 774.5Q821 739 821 727Q818 721 818 715Q818 701 828 690Q838 679 854 679Q864 679 873 685.5Q882 692 884 697.5ZM1663 485Q1663 525 1633.5 552Q1604 579 1556 579Q1536 579 1514.5 574Q1493 569 1472 563L1429 551Q1399 542 1363 538.5Q1327 535 1300 535Q1272 535 1236 539Q1200 543 1172 551L1130 563Q1108 569 1086.5 574Q1065 579 1044 579Q996 579 966.5 552Q937 525 937 485Q937 392 1052.5 315Q1168 238 1284 238Q1436 238 1549.5 315.5Q1663 393 1663 485ZM1766 682Q1788 691 1788 715L1788 725L1772 756Q1756 786 1718.5 813Q1681 840 1626 840Q1582 840 1545.5 818.5Q1509 797 1491 773L1480 759Q1474 750 1474 740Q1474 726 1483.5 715Q1493 704 1508 704Q1518 704 1525 708.5Q1532 713 1539 720L1547 731Q1559 746 1580 757Q1601 768 1628 768Q1658 768 1681 751.5Q1704 735 1711 720L1721 703Q1725 692 1734 685.5Q1743 679 1754 679Q1757 679 1760 680Z" fill="#ffb82b"/></g><g transform="translate(75400,0)"><path d="M2497 164Q2510 141 2517.5 114.5Q2525 88 2525 61Q2525 -1 2487.5 -49.5Q2450 -98 2408.5 -118Q2367 -138 2279 -154L2081 -189Q2049 -195 2027 -198L1985 -207Q1926 -221 1863 -245Q1800 -269 1669 -269Q1433 -269 1295.5 -135.5Q1158 -2 1158 215Q1158 267 1169.5 328Q1181 389 1207 453L1203 583Q1120 467 1010 402Q900 337 781 337Q683 337 584.5 379Q486 421 390.5 541Q295 661 276 738Q257 815 217 884Q209 897 192.5 927.5Q176 958 166 977L123 1061L122 1061Q114 1078 79 1147.5Q44 1217 44 1276Q44 1350 88.5 1406.5Q133 1463 215 1475Q227 1554 280.5 1600Q334 1646 418 1646Q433 1646 441 1645Q465 1696 510.5 1726Q556 1756 615 1756Q671 1756 722 1728Q748 1752 780.5 1763.5Q813 1775 851 1775Q937 1775 992.5 1722.5Q1048 1670 1056 1585L1065 1469L1077 1306L1081 1240Q1081 1211 1082 1201L1084 1194Q1084 1169 1087 1150L1091 1114Q1093 1097 1095.5 1081.5Q1098 1066 1100 1048Q1165 1095 1200 1113Q1235 1131 1296 1131Q1384 1131 1440.5 1069.5Q1497 1008 1497 927Q1497 911 1495.5 897Q1494 883 1489 869Q1523 856 1570.5 802Q1618 748 1618 602Q1685 638 1700 648L1745 679Q1782 704 1868.5 762.5Q1955 821 1984 840L2069 895Q2097 914 2127 922.5Q2157 931 2186 931Q2264 931 2326 871.5Q2388 812 2388 731L2388 719Q2440 698 2477.5 647Q2515 596 2515 535Q2515 491 2493 447Q2522 418 2539 381Q2556 344 2556 304Q2556 225 2497 164ZM244 1352Q208 1352 187.5 1330Q167 1308 167 1276Q167 1255 173 1239.5Q179 1224 188 1207L261 1065L286 1019Q380 843 388 791.5Q396 740 453.5 667Q511 594 545.5 560.5Q580 527 645.5 504.5Q711 482 789 482Q895 482 982 536Q1069 590 1136 708L1141 716Q1255 801 1314 840Q1373 879 1373 927Q1373 961 1351.5 984.5Q1330 1008 1296 1008Q1248 1008 1211 979Q1174 950 1116.5 901.5Q1059 853 997 853L968 853Q928 853 907.5 842Q887 831 877 831Q872 831 864.5 835.5Q857 840 857 848Q857 857 874 869Q891 881 915 890L936 898Q944 901 966 904Q988 907 988 935Q988 973 981 1017.5Q974 1062 964 1104L956 1264L950 1364L942 1471Q942 1485 934 1568.5Q926 1652 849 1652Q814 1652 794.5 1625Q775 1598 775 1557Q775 1550 778 1526L784 1467L793 1392Q797 1363 809 1276Q821 1189 825 1169L837 1168Q851 1166 867.5 1160Q884 1154 884 1145Q884 1137 871 1131.5Q858 1126 845 1126Q723 1111 613.5 1066.5Q504 1022 470.5 998.5Q437 975 423 975Q409 975 409 986Q409 997 421 1011L438 1032Q417 1076 398 1120L362 1200Q343 1242 320 1297Q297 1352 244 1352ZM1284 226Q1284 108 1349.5 21.5Q1415 -65 1487 -104Q1559 -143 1734 -143Q1782 -143 1862.5 -114Q1943 -85 1996 -76L2098 -59L2282 -26Q2355 -13 2377.5 12Q2400 37 2400 61Q2400 92 2377.5 117Q2355 142 2321 142Q2309 142 2299 139L2105 91Q2058 79 2010 69L2008 55Q2005 40 1999 28Q1993 16 1985 16Q1977 16 1973.5 22.5Q1970 29 1970 40L1969 49Q1955 184 1904 304.5Q1853 425 1837.5 447Q1822 469 1822 482Q1822 491 1833 491Q1847 491 1861.5 478.5Q1876 466 1882 458Q1906 471 1939 490L2007 528Q2037 545 2072 565.5Q2107 586 2143 608L2193 639Q2230 661 2247 684.5Q2264 708 2264 732Q2264 760 2240 784Q2216 808 2186 808Q2165 808 2136 791L2042 729Q2009 707 1974 683L1854 601Q1825 582 1784.5 556Q1744 530 1712 511L1676 490Q1658 480 1633 465L1618 456Q1597 444 1589.5 435.5Q1582 427 1582 419Q1582 411 1598.5 379Q1615 347 1615 308Q1615 300 1612 293Q1609 286 1600 286Q1578 286 1573.5 318.5Q1569 351 1532.5 393.5Q1496 436 1493 494Q1493 525 1494 554Q1495 583 1495 606Q1495 630 1494 646Q1493 662 1493 668Q1487 703 1465 733Q1443 763 1412 763Q1378 763 1350.5 741Q1323 719 1323 679L1329 513Q1329 471 1330 431L1327 421Q1300 352 1292 308Q1284 264 1284 226ZM2312 609Q2292 609 2273 600L2179 551L2108 515L1916 419Q1934 397 1948.5 366Q1963 335 1974 309Q1999 317 2034 331L2184 390L2254 418Q2286 431 2309 441L2337 454Q2354 465 2372.5 487Q2391 509 2391 535L2391 546Q2389 567 2366.5 588Q2344 609 2312 609ZM697 1564Q691 1597 667 1615Q643 1633 616 1633Q582 1633 562 1607.5Q542 1582 542 1541Q542 1530 544 1526Q544 1519 550 1496L565 1439Q574 1405 586 1366L609 1287L632 1212Q643 1176 651 1152Q677 1159 702 1164Q727 1169 753 1171L773 1174L762 1229Q755 1262 748 1302L732 1383Q728 1404 718 1452Q708 1500 704 1524ZM488 1467Q480 1496 458 1509.5Q436 1523 411 1523Q377 1523 357 1501Q337 1479 337 1437Q337 1420 339 1411.5Q341 1403 350 1382L460 1114L479 1065Q506 1085 536 1102Q566 1119 597 1131L565 1229Q547 1281 532 1329ZM2433 302Q2433 331 2408 355Q2383 379 2355 379Q2337 379 2323 374L2089 290Q2037 271 1992 256Q2001 223 2005.5 190.5Q2010 158 2012 123L2341 213Q2367 220 2378 226Q2389 232 2411 255Q2433 278 2433 302Z" fill="#ffb82b"/></g><g transform="translate(78000,0)"><path d="M723 1733L1876 1733L1876 -269L723 -269ZM866 -127L1733 -127L1733 1591L866 1591Z" fill="#ffb82b"/></g><g transform="translate(80600,0)"><path d="M723 1733L1876 1733L1876 -269L723 -269ZM866 -127L1733 -127L1733 1591L866 1591Z" fill="#ffb82b"/></g><g transform="translate(83200,0)"><path d="M492 1037L519 1097Q647 1377 841 1514Q1035 1651 1299 1651Q1468 1651 1604 1596.5Q1740 1542 1837.5 1447.5Q1935 1353 1999 1245Q2063 1137 2098 1054.5Q2133 972 2284 830Q2435 688 2482 576Q2529 464 2529 360Q2529 173 2446.5 72Q2364 -29 2223 -80.5Q2082 -132 1864 -132Q1654 -132 1549.5 -101Q1445 -70 1389.5 -4Q1334 62 1334 163Q1334 225 1337 279.5Q1340 334 1340 392Q1340 424 1339 455.5Q1338 487 1336 519L1336 526Q1336 530 1334 534Q1345 593 1361.5 613Q1378 633 1399 633Q1416 633 1429 616.5Q1442 600 1455 569L1466 541Q1488 486 1508.5 378.5Q1529 271 1609 219.5Q1689 168 1822 168Q2039 168 2119 210Q2199 252 2199 331Q2199 339 2196.5 346Q2194 353 2185 353Q2160 353 2121 295.5Q2082 238 1822 238Q1735 238 1685.5 259Q1636 280 1613.5 306.5Q1591 333 1576 405L1565 457Q1559 483 1551.5 510.5Q1544 538 1532 567L1529 577L1512 615Q1495 653 1466 678.5Q1437 704 1399 704Q1370 704 1343 688Q1316 672 1299 644Q1282 669 1255 686.5Q1228 704 1199 704Q1161 704 1129 676.5Q1097 649 1070 577L1066 567Q1054 538 1046.5 510Q1039 482 1033 456L1022 404Q1006 334 983 307Q960 280 910.5 259Q861 238 775 238L759 240Q645 240 565.5 254.5Q486 269 460 308.5Q434 348 416 348Q410 348 404.5 345Q399 342 399 333Q399 325 401 315L407 279Q416 234 503.5 201Q591 168 763 168Q911 168 990.5 221.5Q1070 275 1088 379.5Q1106 484 1130 541L1142 569Q1155 601 1168.5 617Q1182 633 1199 633Q1221 633 1237.5 608.5Q1254 584 1263 534Q1263 530 1262 526L1262 519Q1256 451 1256 382Q1256 326 1259.5 274Q1263 222 1263 163Q1263 62 1207 -3.5Q1151 -69 1044.5 -100.5Q938 -132 733 -132Q421 -132 246 -16.5Q71 99 71 389Q71 489 126.5 599Q182 709 302.5 818.5Q423 928 492 1037ZM786 938Q790 938 833 920.5Q876 903 931 874L914 874Q832 874 795.5 861.5Q759 849 759 825Q759 810 769.5 800Q780 790 794 790Q796 790 798.5 791Q801 792 803 792Q832 799 862.5 801.5Q893 804 922 804Q975 804 1016 798.5Q1057 793 1058 793L1063 792Q1077 792 1088.5 802.5Q1100 813 1100 827Q1100 858 1006.5 912.5Q913 967 841 994L810 1005Q806 1007 804 1007L799 1007Q785 1007 774 997.5Q763 988 763 973Q763 962 769 952.5Q775 943 786 938ZM1497 826Q1497 812 1508 802Q1519 792 1533 792L1580 799Q1598 801 1622.5 802.5Q1647 804 1675 804Q1704 804 1735 801.5Q1766 799 1795 792Q1797 792 1799 791Q1801 790 1803 790Q1817 790 1827.5 800Q1838 810 1838 825Q1838 849 1802.5 861.5Q1767 874 1682 874L1664 874Q1721 905 1760 920L1810 938Q1821 943 1827.5 952.5Q1834 962 1834 973Q1834 988 1823 997.5Q1812 1007 1799 1007Q1792 1007 1788 1005L1757 994L1756 994Q1681 966 1589 911.5Q1497 857 1497 826Z" fill="#ffb82b"/></g><g transform="translate(85800,0)"><path d="M723 1733L1876 1733L1876 -269L723 -269ZM866 -127L1733 -127L1733 1591L866 1591Z" fill="#ffb82b"/></g><g transform="translate(88400,0)"><path d="M2496 410Q2496 373 2473 343Q2450 313 2422 290L2291 177Q2042 -37 1847 -130Q1652 -223 1473 -223Q1394 -223 1311.5 -203.5Q1229 -184 1218 -162Q1194 -165 1167 -165Q1068 -165 976.5 -82.5Q885 0 885 95Q885 174 975 256.5Q1065 339 1209 453Q1353 567 1480 606Q1588 744 1742 856Q1896 968 2072 1060L2326 1194L2369 1217Q2376 1220 2386 1227.5Q2396 1235 2406 1235Q2425 1235 2435.5 1211.5Q2446 1188 2447 1163L2447 1146Q2447 1127 2397.5 1105.5Q2348 1084 2100.5 953.5Q1853 823 1733.5 730.5Q1614 638 1614 616Q1698 579 1735.5 528Q1773 477 1773 388Q1773 271 1685 143Q1597 15 1511 -39L1477 -60Q1461 -71 1450 -81Q1439 -91 1439 -99Q1439 -107 1448.5 -108.5Q1458 -110 1469 -110Q1561 -108 1690.5 -59Q1820 -10 2002 130L2245 313Q2255 321 2332 389.5Q2409 458 2457 458Q2473 458 2484.5 446.5Q2496 435 2496 410ZM918 443Q794 443 704 504.5Q614 566 602.5 637Q591 708 544 708Q538 708 532 707Q526 706 519 706Q500 706 485 716.5Q470 727 457 749L443 771Q365 887 303 1009L177 1253Q174 1259 138.5 1325Q103 1391 103 1441Q103 1463 113 1478.5Q123 1494 145 1494Q171 1494 178.5 1472.5Q186 1451 260.5 1314.5Q335 1178 390 1066Q445 954 471.5 892Q498 830 543 830Q578 830 608 854Q638 878 638 912Q638 937 623 972.5Q608 1008 462 1283Q316 1558 282.5 1614.5Q249 1671 249 1712Q249 1734 260.5 1743Q272 1752 286 1752Q300 1752 311 1745.5Q322 1739 335 1721L347 1704Q384 1651 417 1596Q450 1541 480 1484L540 1370Q714 1033 744.5 978.5Q775 924 775 882Q775 867 771 855Q767 843 763 833L755 813Q751 804 751 795Q751 778 766.5 764.5Q782 751 802 743L825 734Q879 712 939.5 695.5Q1000 679 1059 679Q1098 679 1136.5 686Q1175 693 1214 693Q1234 693 1243 684.5Q1252 676 1252 664Q1252 610 1156.5 526.5Q1061 443 918 443ZM1604 491Q1604 500 1581 508.5Q1558 517 1539 517Q1450 517 1335 430Q1220 343 1100 250.5Q980 158 980 88Q980 72 992 47.5Q1004 23 1022 23Q1036 23 1074 59.5Q1112 96 1324 271Q1536 446 1570 462Q1604 478 1604 491Z" fill="#ffb82b"/></g><g transform="translate(91000,0)"><path d="M723 1733L1876 1733L1876 -269L723 -269ZM866 -127L1733 -127L1733 1591L866 1591Z" fill="#ffb82b"/></g><g transform="translate(93600,0)"><path d="M2314 498Q2227 628 2089.5 712Q1952 796 1792 796Q1598 796 1458 709.5Q1318 623 1250 503.5Q1182 384 1078 384Q1050 384 1031 399.5Q1012 415 1012 443L1012 450L1071 1103Q1073 1125 1089 1141.5Q1105 1158 1130 1158Q1158 1158 1187 1150Q1216 1142 1245 1142Q1301 1142 1325.5 1176.5Q1350 1211 1350 1260Q1350 1283 1337.5 1314.5Q1325 1346 1325 1372Q1325 1389 1332 1405Q1339 1421 1359 1436L1426 1320Q1463 1257 1474 1241Q1485 1225 1504 1225Q1521 1225 1536 1235Q1551 1245 1551 1261Q1551 1267 1547 1275L1447 1477Q1445 1480 1443 1485.5Q1441 1491 1441 1501Q1441 1515 1452.5 1523Q1464 1531 1478 1531Q1500 1531 1512.5 1505Q1525 1479 1537 1455L1561 1410Q1573 1385 1585 1364L1605 1326Q1614 1309 1621.5 1301.5Q1629 1294 1645 1294Q1662 1294 1675 1302.5Q1688 1311 1688 1327L1688 1332Q1688 1335 1687 1338L1593 1546Q1591 1548 1591 1561Q1591 1575 1601.5 1585Q1612 1595 1629 1595Q1642 1595 1649.5 1588Q1657 1581 1660 1573L1706 1465Q1742 1380 1751.5 1365.5Q1761 1351 1781 1351Q1795 1351 1810.5 1359Q1826 1367 1826 1384Q1826 1391 1825 1395L1743 1603Q1741 1607 1741 1609.5Q1741 1612 1740 1620Q1740 1634 1750 1642.5Q1760 1651 1777 1651Q1792 1651 1800.5 1641Q1809 1631 1813 1623L1854 1517Q1866 1476 1884 1444Q1902 1412 1922 1412Q1939 1412 1954 1420.5Q1969 1429 1969 1446Q1969 1451 1967 1454L1963 1472L1940 1545L1907 1644Q1880 1725 1828 1755.5Q1776 1786 1708 1786Q1576 1786 1372.5 1676.5Q1169 1567 1007.5 1438Q846 1309 713 1082Q580 855 493.5 602.5Q407 350 407 214Q407 136 438 56.5Q469 -23 498.5 -46.5Q528 -70 571.5 -93Q615 -116 915.5 -164Q1216 -212 1587 -243.5Q1958 -275 2314 -278L2314 -400Q1766 -395 1254.5 -332.5Q743 -270 579.5 -223.5Q416 -177 350.5 -46.5Q285 84 285 216Q285 376 384.5 660Q484 944 622.5 1170Q761 1396 930.5 1532.5Q1100 1669 1325 1788.5Q1550 1908 1708 1908Q1799 1908 1874 1868.5Q1949 1829 1994 1736.5Q2039 1644 2089 1440L2105 1413Q2121 1384 2132 1346Q2143 1308 2143 1273Q2143 1147 2017.5 1100.5Q1892 1054 1806 1054Q1757 1054 1724.5 1064.5Q1692 1075 1671 1090Q1603 1059 1508 1037.5Q1413 1016 1313 1016Q1283 1016 1252 1018Q1221 1020 1188 1025L1144 564Q1253 738 1416 828Q1579 918 1788 918Q1943 918 2077 858Q2211 798 2314 690ZM2133 280Q2146 280 2154.5 272Q2163 264 2163 250Q2163 143 2082.5 69Q2002 -5 1844 -5Q1740 -5 1637.5 30Q1535 65 1477 105L1441 129Q1435 134 1432 141Q1429 148 1429 154Q1429 168 1438.5 176Q1448 184 1459 184L1465 184L1483 182Q1515 177 1569.5 172.5Q1624 168 1681 168Q1833 168 1941.5 198Q2050 228 2084.5 254Q2119 280 2133 280ZM1788 1239Q1788 1220 1800 1201.5Q1812 1183 1841 1183Q1854 1183 1867.5 1187.5Q1881 1192 1915 1206L1977 1231Q1997 1239 2015 1257.5Q2033 1276 2033 1305Q2033 1332 2023.5 1347.5Q2014 1363 2010 1375L1965 1355Q1814 1288 1801 1270Q1788 1252 1788 1239Z" fill="#ffb82b"/></g><g transform="translate(96200,0)"><path d="M723 1733L1876 1733L1876 -269L723 -269ZM866 -127L1733 -127L1733 1591L866 1591Z" fill="#ffb82b"/></g><g transform="translate(98800,0)"><path d="M723 1733L1876 1733L1876 -269L723 -269ZM866 -127L1733 -127L1733 1591L866 1591Z" fill="#ffb82b"/></g><g transform="translate(101400,0)"><path d="M723 1733L1876 1733L1876 -269L723 -269ZM866 -127L1733 -127L1733 1591L866 1591Z" fill="#ffb82b"/></g><g transform="translate(104000,0)"><path d="M723 1733L1876 1733L1876 -269L723 -269ZM866 -127L1733 -127L1733 1591L866 1591Z" fill="#ffb82b"/></g><g transform="translate(106600,0)"><path d="M885 311Q885 451 941 540.5Q997 630 997 718Q997 774 963 835.5Q929 897 929 971Q929 1088 1009 1220Q1089 1352 1186.5 1409.5Q1284 1467 1386 1467Q1526 1467 1611.5 1363.5Q1697 1260 1697 1078Q1697 1060 1687 1051.5Q1677 1043 1663 1043Q1625 1043 1621.5 1090.5Q1618 1138 1588 1194.5Q1558 1251 1507 1289.5Q1456 1328 1399 1328Q1301 1328 1227 1246Q1153 1164 1153 1063Q1153 995 1210 974Q1267 953 1318.5 898Q1370 843 1370 789Q1370 772 1359.5 756Q1349 740 1332 740Q1310 740 1297.5 770Q1285 800 1263 817Q1241 834 1212 834Q1189 834 1179.5 825Q1170 816 1170 801Q1170 790 1175 777L1185 749Q1190 734 1194.5 716Q1199 698 1199 677Q1199 598 1133.5 507.5Q1068 417 1068 334Q1068 268 1098.5 233.5Q1129 199 1192 199Q1256 199 1284 220.5Q1312 242 1327 242Q1345 242 1358 227Q1371 212 1371 192Q1371 155 1285 102Q1199 49 1107 49Q1008 49 946.5 114.5Q885 180 885 311ZM2015 1200Q2015 971 1889 693Q1763 415 1712.5 174Q1662 -67 1502 -213.5Q1342 -360 1133 -360Q979 -360 859.5 -282.5Q740 -205 681 -103L666 -77Q661 -69 660 -61.5Q659 -54 659 -47Q659 -20 677.5 1Q696 22 726 22Q746 22 763 12Q780 2 789 -16Q789 -28 838.5 -86.5Q888 -145 965 -184Q1042 -223 1134 -223Q1292 -223 1414.5 -106.5Q1537 10 1576.5 196.5Q1616 383 1675 535Q1734 687 1805.5 860.5Q1877 1034 1877 1201Q1877 1401 1749 1538Q1621 1675 1420 1681L1382 1681Q1141 1681 978.5 1537.5Q816 1394 726 1043L720 1018Q715 993 696.5 978Q678 963 655 963Q625 963 605 982.5Q585 1002 585 1030Q585 1040 586 1045L594 1077L593 1077Q641 1276 736.5 1448.5Q832 1621 999 1720Q1166 1819 1408 1819Q1643 1819 1829 1653.5Q2015 1488 2015 1200Z" fill="#ffb82b"/></g><g transform="translate(109200,0)"><path d="M723 1733L1876 1733L1876 -269L723 -269ZM866 -127L1733 -127L1733 1591L866 1591Z" fill="#ffb82b"/></g><g transform="translate(111800,0)"><path d="M2084 315Q2084 212 2043 127Q2002 42 1923.5 7.5Q1845 -27 1784 -27Q1759 -27 1738 -23.5Q1717 -20 1699 -15L1664 -7Q1648 -3 1634 -3Q1587 -3 1503.5 -56Q1420 -109 1299 -109Q1229 -109 1180 -93Q1131 -77 1094 -56L1030 -19Q1001 -3 967 -3Q950 -3 934 -7L899 -15Q882 -20 861 -23.5Q840 -27 815 -27Q757 -27 680.5 4.5Q604 36 559.5 123Q515 210 515 318Q515 384 543 459.5Q571 535 617 615L684 732Q711 778 734.5 839Q758 900 783 974L838 1134L837 1134Q896 1305 945 1399.5Q994 1494 1094.5 1560Q1195 1626 1299 1626Q1397 1626 1499.5 1563Q1602 1500 1659.5 1389Q1717 1278 1791 1046Q1865 814 1915 732L1933 703Q1988 617 2036 512Q2084 407 2084 315ZM1947 315Q1947 368 1914.5 446Q1882 524 1814 632L1797 662Q1767 714 1742.5 776.5Q1718 839 1692 914L1636 1077Q1577 1249 1540 1320.5Q1503 1392 1438.5 1438Q1374 1484 1316 1488L1300 1489L1284 1488Q1230 1484 1166.5 1442Q1103 1400 1063.5 1330Q1024 1260 963 1078L908 915Q882 840 857.5 777Q833 714 803 662L785 632L741 556Q704 493 678 429Q652 365 652 317Q652 223 691.5 168Q731 113 815 113Q832 113 849 117L883 124L921 131Q940 134 963 134Q1053 134 1131 81Q1209 28 1299 28Q1389 28 1468 81Q1547 134 1632 134Q1654 134 1670.5 132Q1687 130 1718 124L1751 117Q1767 113 1784 113Q1838 113 1875 136Q1912 159 1929.5 210.5Q1947 262 1947 315Z" fill="#ffb82b"/></g><g transform="translate(114400,0)"><path d="M723 1733L1876 1733L1876 -269L723 -269ZM866 -127L1733 -127L1733 1591L866 1591Z" fill="#ffb82b"/></g><g transform="translate(117000,0)"><path d="M723 1733L1876 1733L1876 -269L723 -269ZM866 -127L1733 -127L1733 1591L866 1591Z" fill="#ffb82b"/></g><g transform="translate(119600,0)"><path d="M723 1733L1876 1733L1876 -269L723 -269ZM866 -127L1733 -127L1733 1591L866 1591Z" fill="#ffb82b"/></g><g transform="translate(122200,0)"><path d="M1063 817L1087 771Q1099 747 1099 724Q1099 710 1092.5 701Q1086 692 1068 692Q1047 692 1022 725.5Q997 759 967 759Q938 759 922.5 697Q907 635 849 596Q791 557 716 557Q618 557 553 617Q488 677 486 738Q484 799 457 799Q440 799 416.5 776Q393 753 367 705.5Q341 658 315 658Q302 658 293.5 672Q285 686 285 704Q285 776 338.5 856.5Q392 937 489.5 989Q587 1041 694 1041Q823 1041 917.5 978.5Q1012 916 1063 817ZM677 844Q677 869 657 886.5Q637 904 611 904Q585 904 565 883Q545 862 545 837Q545 812 563 796Q581 780 605 780Q632 780 654.5 798.5Q677 817 677 844ZM2315 707Q2315 692 2307 675Q2299 658 2285 658Q2268 658 2255 673Q2242 688 2231 708L2208 746Q2198 764 2177 781.5Q2156 799 2141 799Q2116 799 2114.5 741.5Q2113 684 2050.5 620.5Q1988 557 1884 557Q1809 557 1752 594.5Q1695 632 1677 695.5Q1659 759 1632 759Q1605 759 1578 725.5Q1551 692 1530 692Q1501 692 1501 720Q1501 767 1559 855Q1617 943 1705 992Q1793 1041 1904 1041Q2027 1041 2139 972Q2251 903 2295 792L2304 770Q2308 758 2311.5 740.5Q2315 723 2315 707ZM1849 834L1849 843Q1849 869 1829.5 886.5Q1810 904 1784 904Q1759 904 1738.5 882.5Q1718 861 1718 837Q1718 814 1735 797Q1752 780 1777 780Q1806 780 1827.5 799Q1849 818 1849 834Z" fill="#ffb82b"/></g><g transform="translate(124800,0)"><path d="M723 1733L1876 1733L1876 -269L723 -269ZM866 -127L1733 -127L1733 1591L866 1591Z" fill="#ffb82b"/></g><g transform="translate(127400,0)"><path d="M859 1569Q859 1595 904.5 1610Q950 1625 993 1625Q1068 1625 1134.5 1615.5Q1201 1606 1269 1606Q1312 1606 1354 1613.5Q1396 1621 1476 1623L1523 1623Q1642 1623 1679.5 1602.5Q1717 1582 1717 1565Q1717 1548 1694 1541Q1671 1534 1641 1534Q1626 1534 1611.5 1535Q1597 1536 1581 1536Q1524 1536 1433 1510Q1342 1484 1282 1484Q1239 1484 1196.5 1491.5Q1154 1499 1112 1509L1028 1528Q996 1535 963 1539Q930 1543 906 1543Q889 1543 874 1550Q859 1557 859 1569ZM2276 1151Q2276 1074 2209 1005.5Q2142 937 2039 897L2029 893Q1931 592 1908 414Q1885 236 1800 115.5Q1715 -5 1582 -67Q1449 -129 1300 -129Q1147 -129 1013.5 -65Q880 -1 796.5 119.5Q713 240 690.5 418.5Q668 597 571 893L560 897Q459 936 391 1005Q323 1074 323 1151Q323 1239 400 1312Q477 1385 626 1385Q702 1385 794.5 1359.5Q887 1334 1020.5 1317.5Q1154 1301 1299 1301Q1450 1301 1584.5 1318.5Q1719 1336 1807 1360.5Q1895 1385 1974 1385Q2123 1385 2199.5 1312Q2276 1239 2276 1151ZM1863 819L1879 877Q1885 901 1885 910Q1885 946 1868.5 959.5Q1852 973 1829 973Q1821 973 1814 972L1799 970L1653 937Q1618 929 1585 922L1522 909L1441 892Q1429 889 1417.5 877.5Q1406 866 1400 855.5Q1394 845 1381 785.5Q1368 726 1361 655Q1354 584 1345 515Q1336 446 1329 427Q1320 400 1300 400Q1277 400 1269 426.5Q1261 453 1256 504L1245 625Q1238 695 1222 769.5Q1206 844 1199.5 854.5Q1193 865 1181.5 876.5Q1170 888 1160.5 891Q1151 894 1077 909L1015 922Q981 929 947 937L802 970L787 972Q779 972 771 973Q743 973 729 957.5Q715 942 715 897Q715 888 722 865L737 808Q766 700 802 502.5Q838 305 887.5 212.5Q937 120 1036 65Q1135 10 1300 10Q1469 10 1568.5 68Q1668 126 1715.5 219Q1763 312 1797.5 506.5Q1832 701 1863 819ZM623 1251Q623 1233 678 1174.5Q733 1116 803 1087.5Q873 1059 886 1059Q895 1059 897.5 1070.5Q900 1082 900 1105L900 1177L899 1193Q897 1211 891 1220Q885 1229 814.5 1251.5Q744 1274 703 1280Q698 1280 684 1282Q670 1284 656 1284Q642 1284 632 1280.5Q622 1277 622 1263Q622 1255 623 1251ZM1943 1284Q1929 1284 1915 1282Q1901 1280 1896 1280Q1883 1278 1853.5 1271Q1824 1264 1794 1254L1754 1241Q1724 1230 1713 1223.5Q1702 1217 1701 1184L1699 1145Q1699 1088 1701.5 1073.5Q1704 1059 1713 1059Q1725 1059 1794 1086.5Q1863 1114 1920.5 1173.5Q1978 1233 1978 1262Q1978 1277 1967.5 1280.5Q1957 1284 1943 1284ZM1329 1037Q1329 1006 1365 1006Q1627 1006 1634 1058.5Q1641 1111 1641 1137Q1641 1182 1638 1192.5Q1635 1203 1618 1203Q1606 1203 1589 1200L1566 1196Q1542 1192 1517 1189L1417 1178Q1372 1173 1355 1163Q1338 1153 1335 1118ZM1267 1127Q1263 1159 1241.5 1167Q1220 1175 1137 1184L1086 1189Q1060 1192 1036 1196L1014 1200Q996 1203 984 1203Q968 1203 964 1193Q960 1183 960 1141Q960 1123 962.5 1102Q965 1081 965 1067Q965 1038 1027 1022Q1089 1006 1237 1006Q1273 1006 1273 1034Q1273 1045 1271 1073Z" fill="#ffb82b"/></g><g transform="translate(130000,0)"><path d="M1802 114Q1802 56 1674.5 -6.5Q1547 -69 1360 -69Q1286 -69 1214.5 -58.5Q1143 -48 1073 -24L1029 -8Q980 9 939.5 37Q899 65 899 96Q899 127 927 144.5Q955 162 999 162Q1043 162 1127.5 145Q1212 128 1352 128Q1403 128 1457.5 132Q1512 136 1552 145L1604 156Q1630 161 1656.5 165.5Q1683 170 1710 170Q1751 170 1776.5 155.5Q1802 141 1802 114ZM2267 794Q2267 569 2009 444.5Q1751 320 1325 320Q853 320 592.5 441Q332 562 332 794Q332 1160 600.5 1361Q869 1562 1300 1562Q1730 1562 1998.5 1361.5Q2267 1161 2267 794ZM1266 1351Q1266 1374 1260 1388Q1254 1402 1240 1402Q1187 1402 1073.5 1387.5Q960 1373 941 1366.5Q922 1360 916 1324.5Q910 1289 910 1177Q910 1113 919.5 1100Q929 1087 958 1087Q968 1087 1005 1089L1163 1096L1211 1097Q1241 1097 1255 1103.5Q1269 1110 1269 1139ZM578 1079Q578 1063 591 1057Q604 1051 618 1051L627 1051Q631 1051 633.5 1052Q636 1053 664 1057L713 1064Q721 1064 751.5 1068Q782 1072 789 1072L803 1075Q819 1077 830 1086Q841 1095 841 1114L850 1271Q850 1284 851 1286L851 1298Q851 1309 848 1316Q845 1323 836 1324Q828 1324 818.5 1318.5Q809 1313 803 1309L763 1281Q693 1232 635.5 1168.5Q578 1105 578 1079ZM1310 470Q1493 470 1678 492Q1863 514 1863 587Q1863 635 1773.5 671Q1684 707 1599 707Q1540 707 1453 692Q1366 677 1310 677Q1253 677 1169 692Q1085 707 1028 707Q943 707 849.5 672.5Q756 638 756 587Q756 515 939.5 492.5Q1123 470 1310 470ZM1340 1139Q1342 1111 1353.5 1104Q1365 1097 1399 1097L1426 1097Q1432 1097 1528 1092.5Q1624 1088 1627 1088L1651 1087Q1684 1087 1691.5 1101.5Q1699 1116 1699 1165Q1699 1271 1693.5 1317.5Q1688 1364 1658.5 1369.5Q1629 1375 1525 1388.5Q1421 1402 1370 1402Q1358 1402 1350.5 1390Q1343 1378 1343 1351ZM2030 1080Q2030 1120 1919.5 1222Q1809 1324 1774 1324Q1765 1324 1761.5 1316.5Q1758 1309 1758 1298L1759 1286L1767 1131L1767 1114Q1767 1077 1806 1074.5Q1845 1072 1914 1061L1982 1051L1991 1051Q2009 1051 2019.5 1059Q2030 1067 2030 1080Z" fill="#ffb82b"/></g><g transform="translate(132600,0)"><path d="M2340 319Q2340 224 2215.5 192.5Q2091 161 2016.5 103Q1942 45 1748.5 -51Q1555 -147 1373 -147Q1260 -147 1145.5 -120.5Q1031 -94 924 -57.5Q817 -21 716.5 46.5Q616 114 562 212.5Q508 311 496.5 430.5Q485 550 464 657.5Q443 765 372 869L346 906L314 950Q291 973 275.5 998.5Q260 1024 260 1053Q260 1110 317.5 1139.5Q375 1169 417 1180.5Q459 1192 527.5 1239.5Q596 1287 623 1306.5Q650 1326 732 1407L786 1459Q877 1546 967.5 1591.5Q1058 1637 1140 1637Q1244 1637 1339.5 1561Q1435 1485 1500.5 1452Q1566 1419 1650.5 1406Q1735 1393 1850.5 1377Q1966 1361 2067 1281Q2168 1201 2179.5 1073.5Q2191 946 2195 922L2207 820Q2236 575 2288 473.5Q2340 372 2340 319ZM1814 460Q1834 460 1855 459Q1876 458 1897 456Q1839 524 1793 647Q1747 770 1718.5 816Q1690 862 1650 883.5Q1610 905 1508 905Q1381 908 1314 926Q1247 944 1180 997.5Q1113 1051 1044 1051Q992 1051 883 1001.5Q774 952 681 934Q759 861 852 699.5Q945 538 1089.5 469Q1234 400 1401 400Q1474 400 1602 430Q1730 460 1814 460Z" fill="#ffb82b"/></g><g transform="translate(135200,0)"><path d="M723 1733L1876 1733L1876 -269L723 -269ZM866 -127L1733 -127L1733 1591L866 1591Z" fill="#ffb82b"/></g>
            </g>
          </svg>